G04 EAGLE Gerber RS-274X export*
G75*
%MOMM*%
%FSLAX34Y34*%
%LPD*%
%INTop Copper*%
%IPPOS*%
%AMOC8*
5,1,8,0,0,1.08239X$1,22.5*%
G01*
%ADD10R,1.164600X1.465300*%
%ADD11R,0.558800X1.270000*%
%ADD12R,1.270000X0.558800*%
%ADD13C,1.524000*%
%ADD14R,1.031200X1.420200*%
%ADD15R,1.420200X1.031200*%
%ADD16R,2.100000X2.100000*%
%ADD17C,2.100000*%
%ADD18C,1.200000*%
%ADD19C,1.800000*%
%ADD20C,1.705100*%
%ADD21P,2.336880X8X112.500000*%
%ADD22P,2.336880X8X22.500000*%
%ADD23R,5.906200X0.841800*%
%ADD24R,12.666200X10.151800*%
%ADD25R,0.600000X1.550000*%
%ADD26R,1.200000X1.800000*%
%ADD27C,1.333500*%
%ADD28C,0.508000*%
%ADD29C,2.032000*%
%ADD30C,1.016000*%
%ADD31C,0.762000*%
%ADD32C,0.889000*%

G36*
X942336Y10926D02*
X942336Y10926D01*
X942355Y10924D01*
X942457Y10946D01*
X942559Y10962D01*
X942576Y10972D01*
X942596Y10976D01*
X942685Y11029D01*
X942776Y11078D01*
X942790Y11092D01*
X942807Y11102D01*
X942874Y11181D01*
X942946Y11256D01*
X942954Y11274D01*
X942967Y11289D01*
X943006Y11385D01*
X943049Y11479D01*
X943051Y11499D01*
X943059Y11517D01*
X943077Y11684D01*
X943077Y410316D01*
X943074Y410336D01*
X943076Y410355D01*
X943054Y410457D01*
X943038Y410559D01*
X943028Y410576D01*
X943024Y410596D01*
X942971Y410685D01*
X942922Y410776D01*
X942908Y410790D01*
X942898Y410807D01*
X942819Y410874D01*
X942744Y410946D01*
X942726Y410954D01*
X942711Y410967D01*
X942615Y411006D01*
X942521Y411049D01*
X942501Y411051D01*
X942483Y411059D01*
X942316Y411077D01*
X11684Y411077D01*
X11664Y411074D01*
X11645Y411076D01*
X11543Y411054D01*
X11441Y411038D01*
X11424Y411028D01*
X11404Y411024D01*
X11315Y410971D01*
X11224Y410922D01*
X11210Y410908D01*
X11193Y410898D01*
X11126Y410819D01*
X11054Y410744D01*
X11046Y410726D01*
X11033Y410711D01*
X10994Y410615D01*
X10951Y410521D01*
X10949Y410501D01*
X10941Y410483D01*
X10923Y410316D01*
X10923Y160684D01*
X10926Y160664D01*
X10924Y160645D01*
X10946Y160543D01*
X10962Y160441D01*
X10972Y160424D01*
X10976Y160404D01*
X11029Y160315D01*
X11078Y160224D01*
X11092Y160210D01*
X11102Y160193D01*
X11181Y160126D01*
X11256Y160054D01*
X11274Y160046D01*
X11289Y160033D01*
X11385Y159994D01*
X11479Y159951D01*
X11499Y159949D01*
X11517Y159941D01*
X11684Y159923D01*
X298452Y159923D01*
X298522Y159934D01*
X298594Y159936D01*
X298643Y159954D01*
X298694Y159962D01*
X298758Y159996D01*
X298825Y160021D01*
X298866Y160053D01*
X298912Y160078D01*
X298961Y160130D01*
X299017Y160174D01*
X299045Y160218D01*
X299081Y160256D01*
X299111Y160321D01*
X299150Y160381D01*
X299163Y160432D01*
X299185Y160479D01*
X299193Y160550D01*
X299210Y160620D01*
X299206Y160672D01*
X299212Y160723D01*
X299197Y160794D01*
X299191Y160865D01*
X299171Y160913D01*
X299160Y160964D01*
X299123Y161025D01*
X299095Y161091D01*
X299050Y161147D01*
X299033Y161175D01*
X299016Y161190D01*
X298990Y161222D01*
X295082Y165130D01*
X295008Y165183D01*
X294938Y165243D01*
X294908Y165255D01*
X294882Y165274D01*
X294795Y165301D01*
X294710Y165335D01*
X294669Y165339D01*
X294647Y165346D01*
X294615Y165345D01*
X294544Y165353D01*
X209569Y165353D01*
X209479Y165339D01*
X209388Y165331D01*
X209358Y165319D01*
X209326Y165314D01*
X209246Y165271D01*
X209162Y165235D01*
X209129Y165209D01*
X209109Y165198D01*
X209087Y165175D01*
X209031Y165130D01*
X208619Y164718D01*
X197781Y164718D01*
X190118Y172381D01*
X190118Y183219D01*
X197781Y190882D01*
X208619Y190882D01*
X209031Y190470D01*
X209105Y190416D01*
X209174Y190357D01*
X209204Y190345D01*
X209230Y190326D01*
X209317Y190299D01*
X209402Y190265D01*
X209443Y190261D01*
X209465Y190254D01*
X209498Y190255D01*
X209569Y190247D01*
X302490Y190247D01*
X307065Y188352D01*
X330634Y164783D01*
X332529Y160208D01*
X332529Y79089D01*
X332543Y78999D01*
X332551Y78908D01*
X332563Y78878D01*
X332568Y78846D01*
X332611Y78766D01*
X332647Y78682D01*
X332673Y78650D01*
X332684Y78629D01*
X332707Y78607D01*
X332752Y78551D01*
X359898Y51405D01*
X359972Y51352D01*
X360041Y51292D01*
X360071Y51280D01*
X360097Y51261D01*
X360184Y51234D01*
X360269Y51200D01*
X360310Y51196D01*
X360332Y51189D01*
X360365Y51190D01*
X360436Y51182D01*
X361019Y51182D01*
X361431Y50770D01*
X361505Y50716D01*
X361574Y50657D01*
X361604Y50645D01*
X361630Y50626D01*
X361717Y50599D01*
X361802Y50565D01*
X361843Y50561D01*
X361865Y50554D01*
X361898Y50555D01*
X361969Y50547D01*
X485076Y50547D01*
X489651Y48652D01*
X500233Y38070D01*
X500307Y38017D01*
X500376Y37957D01*
X500406Y37945D01*
X500432Y37926D01*
X500519Y37899D01*
X500604Y37865D01*
X500645Y37861D01*
X500667Y37854D01*
X500700Y37855D01*
X500771Y37847D01*
X671221Y37847D01*
X671311Y37861D01*
X671402Y37869D01*
X671432Y37881D01*
X671464Y37886D01*
X671545Y37929D01*
X671628Y37965D01*
X671661Y37991D01*
X671681Y38002D01*
X671703Y38025D01*
X671759Y38070D01*
X675670Y41981D01*
X675723Y42054D01*
X675783Y42124D01*
X675795Y42154D01*
X675814Y42180D01*
X675841Y42267D01*
X675875Y42352D01*
X675879Y42393D01*
X675886Y42415D01*
X675885Y42448D01*
X675893Y42519D01*
X675893Y50678D01*
X675875Y50793D01*
X675857Y50909D01*
X675855Y50915D01*
X675854Y50921D01*
X675799Y51024D01*
X675746Y51128D01*
X675741Y51133D01*
X675738Y51138D01*
X675654Y51219D01*
X675570Y51301D01*
X675564Y51304D01*
X675560Y51308D01*
X675543Y51316D01*
X675423Y51381D01*
X674727Y51670D01*
X672655Y53742D01*
X671533Y56450D01*
X671533Y73043D01*
X671530Y73063D01*
X671532Y73082D01*
X671510Y73184D01*
X671494Y73286D01*
X671484Y73303D01*
X671480Y73323D01*
X671427Y73412D01*
X671378Y73503D01*
X671364Y73517D01*
X671354Y73534D01*
X671275Y73601D01*
X671200Y73673D01*
X671182Y73681D01*
X671167Y73694D01*
X671071Y73733D01*
X670977Y73776D01*
X670957Y73778D01*
X670939Y73786D01*
X670772Y73804D01*
X648422Y73804D01*
X647082Y75144D01*
X647082Y85456D01*
X648422Y86796D01*
X675180Y86796D01*
X675245Y86806D01*
X675311Y86807D01*
X675391Y86830D01*
X675423Y86835D01*
X675440Y86845D01*
X675472Y86854D01*
X677435Y87667D01*
X680365Y87667D01*
X682328Y86854D01*
X682392Y86839D01*
X682453Y86814D01*
X682536Y86805D01*
X682568Y86798D01*
X682587Y86799D01*
X682620Y86796D01*
X709378Y86796D01*
X710718Y85456D01*
X710718Y75144D01*
X709378Y73804D01*
X687028Y73804D01*
X687008Y73801D01*
X686989Y73803D01*
X686887Y73781D01*
X686785Y73765D01*
X686768Y73755D01*
X686748Y73751D01*
X686659Y73698D01*
X686568Y73649D01*
X686554Y73635D01*
X686537Y73625D01*
X686470Y73546D01*
X686398Y73471D01*
X686390Y73453D01*
X686377Y73438D01*
X686338Y73342D01*
X686295Y73248D01*
X686293Y73228D01*
X686285Y73210D01*
X686267Y73043D01*
X686267Y61683D01*
X686270Y61663D01*
X686268Y61644D01*
X686290Y61542D01*
X686306Y61440D01*
X686316Y61423D01*
X686320Y61403D01*
X686373Y61314D01*
X686422Y61223D01*
X686436Y61209D01*
X686446Y61192D01*
X686525Y61125D01*
X686600Y61053D01*
X686618Y61045D01*
X686633Y61032D01*
X686729Y60993D01*
X686823Y60950D01*
X686843Y60948D01*
X686861Y60940D01*
X687028Y60922D01*
X687771Y60922D01*
X691412Y59414D01*
X694199Y56627D01*
X695707Y52986D01*
X695707Y36129D01*
X694359Y32875D01*
X694344Y32811D01*
X694319Y32750D01*
X694310Y32667D01*
X694302Y32635D01*
X694304Y32616D01*
X694301Y32584D01*
X694301Y26138D01*
X694303Y26122D01*
X694302Y26108D01*
X694302Y26105D01*
X694302Y26099D01*
X694324Y25997D01*
X694340Y25895D01*
X694350Y25878D01*
X694354Y25858D01*
X694407Y25769D01*
X694456Y25678D01*
X694470Y25664D01*
X694480Y25647D01*
X694559Y25580D01*
X694634Y25509D01*
X694652Y25500D01*
X694667Y25487D01*
X694763Y25449D01*
X694857Y25405D01*
X694877Y25403D01*
X694895Y25396D01*
X694819Y25383D01*
X694802Y25374D01*
X694782Y25370D01*
X694693Y25317D01*
X694602Y25268D01*
X694588Y25254D01*
X694571Y25244D01*
X694504Y25165D01*
X694432Y25090D01*
X694424Y25072D01*
X694411Y25057D01*
X694372Y24960D01*
X694329Y24867D01*
X694327Y24847D01*
X694319Y24829D01*
X694301Y24662D01*
X694301Y16990D01*
X693309Y17187D01*
X691754Y17831D01*
X690356Y18766D01*
X689166Y19956D01*
X688631Y20757D01*
X688548Y20845D01*
X688468Y20933D01*
X688465Y20934D01*
X688463Y20936D01*
X688357Y20993D01*
X688252Y21051D01*
X688249Y21052D01*
X688246Y21053D01*
X688130Y21073D01*
X688010Y21095D01*
X688007Y21094D01*
X688004Y21095D01*
X687886Y21077D01*
X687767Y21059D01*
X687764Y21058D01*
X687761Y21057D01*
X687655Y21002D01*
X687548Y20948D01*
X687545Y20945D01*
X687543Y20944D01*
X687460Y20859D01*
X687375Y20772D01*
X687373Y20769D01*
X687372Y20767D01*
X687367Y20757D01*
X687294Y20625D01*
X686352Y18349D01*
X682851Y14848D01*
X678276Y12953D01*
X492824Y12953D01*
X488249Y14848D01*
X477667Y25430D01*
X477593Y25483D01*
X477524Y25543D01*
X477494Y25555D01*
X477468Y25574D01*
X477381Y25601D01*
X477296Y25635D01*
X477255Y25639D01*
X477233Y25646D01*
X477200Y25645D01*
X477129Y25653D01*
X361969Y25653D01*
X361879Y25639D01*
X361788Y25631D01*
X361758Y25619D01*
X361726Y25614D01*
X361646Y25571D01*
X361562Y25535D01*
X361529Y25509D01*
X361509Y25498D01*
X361487Y25475D01*
X361431Y25430D01*
X361019Y25018D01*
X350181Y25018D01*
X342518Y32681D01*
X342518Y33264D01*
X342504Y33354D01*
X342496Y33445D01*
X342484Y33475D01*
X342479Y33507D01*
X342436Y33587D01*
X342400Y33671D01*
X342374Y33703D01*
X342363Y33724D01*
X342340Y33746D01*
X342295Y33802D01*
X313139Y62959D01*
X311222Y64875D01*
X311164Y64917D01*
X311112Y64967D01*
X311065Y64989D01*
X311023Y65019D01*
X310954Y65040D01*
X310889Y65070D01*
X310837Y65076D01*
X310787Y65091D01*
X310716Y65089D01*
X310645Y65097D01*
X310594Y65086D01*
X310542Y65085D01*
X310474Y65060D01*
X310404Y65045D01*
X310359Y65018D01*
X310311Y65000D01*
X310255Y64956D01*
X310193Y64919D01*
X310159Y64879D01*
X310119Y64847D01*
X310080Y64786D01*
X310033Y64732D01*
X310014Y64684D01*
X309986Y64640D01*
X309968Y64570D01*
X309941Y64504D01*
X309933Y64432D01*
X309925Y64401D01*
X309927Y64378D01*
X309923Y64337D01*
X309923Y11684D01*
X309926Y11664D01*
X309924Y11645D01*
X309946Y11543D01*
X309962Y11441D01*
X309972Y11424D01*
X309976Y11404D01*
X310029Y11315D01*
X310078Y11224D01*
X310092Y11210D01*
X310102Y11193D01*
X310181Y11126D01*
X310256Y11054D01*
X310274Y11046D01*
X310289Y11033D01*
X310385Y10994D01*
X310479Y10951D01*
X310499Y10949D01*
X310517Y10941D01*
X310684Y10923D01*
X942316Y10923D01*
X942336Y10926D01*
G37*
%LPC*%
G36*
X717653Y63413D02*
X717653Y63413D01*
X716313Y64753D01*
X716313Y87647D01*
X717653Y88987D01*
X719255Y88987D01*
X719326Y88998D01*
X719398Y89000D01*
X719447Y89018D01*
X719498Y89026D01*
X719562Y89060D01*
X719629Y89085D01*
X719670Y89117D01*
X719715Y89142D01*
X719765Y89194D01*
X719821Y89238D01*
X719849Y89282D01*
X719885Y89320D01*
X719915Y89385D01*
X719954Y89445D01*
X719967Y89496D01*
X719988Y89543D01*
X719996Y89614D01*
X720014Y89684D01*
X720010Y89736D01*
X720016Y89787D01*
X720000Y89858D01*
X719995Y89929D01*
X719974Y89977D01*
X719963Y90028D01*
X719926Y90089D01*
X719898Y90155D01*
X719854Y90211D01*
X719837Y90239D01*
X719819Y90254D01*
X719794Y90286D01*
X719734Y90345D01*
X719660Y90399D01*
X719591Y90458D01*
X719561Y90470D01*
X719535Y90489D01*
X719448Y90516D01*
X719363Y90550D01*
X719322Y90554D01*
X719300Y90561D01*
X719267Y90560D01*
X719196Y90568D01*
X677561Y90568D01*
X677131Y90746D01*
X677067Y90761D01*
X677007Y90786D01*
X676924Y90795D01*
X676892Y90802D01*
X676872Y90801D01*
X676840Y90804D01*
X648422Y90804D01*
X647082Y92144D01*
X647082Y102456D01*
X648422Y103796D01*
X676840Y103796D01*
X676904Y103806D01*
X676970Y103807D01*
X677050Y103830D01*
X677083Y103835D01*
X677100Y103845D01*
X677131Y103854D01*
X677561Y104032D01*
X722572Y104032D01*
X722592Y104035D01*
X722611Y104033D01*
X722713Y104055D01*
X722815Y104071D01*
X722832Y104081D01*
X722852Y104085D01*
X722941Y104138D01*
X723032Y104187D01*
X723046Y104201D01*
X723063Y104211D01*
X723130Y104290D01*
X723202Y104365D01*
X723210Y104383D01*
X723223Y104398D01*
X723262Y104494D01*
X723305Y104588D01*
X723307Y104608D01*
X723315Y104626D01*
X723333Y104793D01*
X723333Y122979D01*
X723323Y123044D01*
X723322Y123109D01*
X723299Y123189D01*
X723294Y123222D01*
X723284Y123239D01*
X723275Y123271D01*
X722413Y125352D01*
X722413Y127753D01*
X722402Y127824D01*
X722400Y127896D01*
X722382Y127945D01*
X722374Y127996D01*
X722340Y128059D01*
X722315Y128127D01*
X722283Y128167D01*
X722258Y128214D01*
X722206Y128263D01*
X722162Y128319D01*
X722118Y128347D01*
X722080Y128383D01*
X722015Y128413D01*
X721955Y128452D01*
X721904Y128465D01*
X721857Y128487D01*
X721786Y128494D01*
X721716Y128512D01*
X721664Y128508D01*
X721613Y128514D01*
X721542Y128498D01*
X721471Y128493D01*
X721423Y128472D01*
X721372Y128461D01*
X721311Y128425D01*
X721245Y128396D01*
X721189Y128352D01*
X721161Y128335D01*
X721146Y128317D01*
X721114Y128292D01*
X718954Y126131D01*
X716713Y125203D01*
X710093Y125203D01*
X710002Y125189D01*
X709912Y125181D01*
X709882Y125169D01*
X709850Y125164D01*
X709769Y125121D01*
X709685Y125085D01*
X709653Y125059D01*
X709632Y125048D01*
X709610Y125025D01*
X709554Y124980D01*
X709378Y124804D01*
X648422Y124804D01*
X647082Y126144D01*
X647082Y136456D01*
X648422Y137796D01*
X709378Y137796D01*
X709554Y137620D01*
X709628Y137567D01*
X709698Y137507D01*
X709728Y137495D01*
X709754Y137476D01*
X709841Y137449D01*
X709926Y137415D01*
X709967Y137411D01*
X709989Y137404D01*
X710021Y137405D01*
X710093Y137397D01*
X712659Y137397D01*
X712749Y137411D01*
X712840Y137419D01*
X712870Y137431D01*
X712902Y137436D01*
X712983Y137479D01*
X713067Y137515D01*
X713099Y137541D01*
X713119Y137552D01*
X713142Y137575D01*
X713198Y137620D01*
X717580Y142002D01*
X717633Y142076D01*
X717693Y142146D01*
X717705Y142176D01*
X717724Y142202D01*
X717751Y142289D01*
X717785Y142374D01*
X717789Y142415D01*
X717796Y142437D01*
X717795Y142469D01*
X717803Y142541D01*
X717803Y151120D01*
X717789Y151210D01*
X717781Y151301D01*
X717769Y151330D01*
X717764Y151362D01*
X717721Y151443D01*
X717685Y151527D01*
X717659Y151559D01*
X717648Y151580D01*
X717625Y151602D01*
X717580Y151658D01*
X714332Y154907D01*
X712613Y159055D01*
X712613Y163545D01*
X714332Y167693D01*
X717507Y170868D01*
X721655Y172587D01*
X726145Y172587D01*
X730293Y170868D01*
X733468Y167693D01*
X735187Y163545D01*
X735187Y160747D01*
X735201Y160657D01*
X735209Y160566D01*
X735221Y160536D01*
X735226Y160504D01*
X735269Y160423D01*
X735305Y160339D01*
X735331Y160307D01*
X735342Y160287D01*
X735365Y160264D01*
X735410Y160208D01*
X761028Y134590D01*
X761102Y134537D01*
X761172Y134477D01*
X761202Y134465D01*
X761228Y134446D01*
X761315Y134419D01*
X761400Y134385D01*
X761441Y134381D01*
X761463Y134374D01*
X761495Y134375D01*
X761567Y134367D01*
X814679Y134367D01*
X814744Y134377D01*
X814809Y134378D01*
X814889Y134401D01*
X814922Y134406D01*
X814939Y134416D01*
X814970Y134425D01*
X816087Y134887D01*
X816143Y134922D01*
X816203Y134947D01*
X816268Y134999D01*
X816296Y135017D01*
X816309Y135032D01*
X816334Y135052D01*
X835695Y154413D01*
X835736Y154471D01*
X835786Y154523D01*
X835808Y154570D01*
X835838Y154612D01*
X835859Y154681D01*
X835889Y154746D01*
X835895Y154798D01*
X835911Y154848D01*
X835909Y154919D01*
X835917Y154990D01*
X835905Y155041D01*
X835904Y155093D01*
X835880Y155161D01*
X835864Y155231D01*
X835838Y155275D01*
X835820Y155324D01*
X835775Y155380D01*
X835738Y155442D01*
X835699Y155476D01*
X835666Y155516D01*
X835606Y155555D01*
X835551Y155602D01*
X835503Y155621D01*
X835459Y155649D01*
X835390Y155667D01*
X835323Y155694D01*
X835252Y155702D01*
X835221Y155710D01*
X835197Y155708D01*
X835156Y155712D01*
X828592Y155712D01*
X827252Y157052D01*
X827252Y173148D01*
X828592Y174488D01*
X840798Y174488D01*
X842138Y173148D01*
X842138Y170688D01*
X842141Y170668D01*
X842139Y170649D01*
X842161Y170547D01*
X842177Y170445D01*
X842187Y170428D01*
X842191Y170408D01*
X842244Y170319D01*
X842293Y170228D01*
X842307Y170214D01*
X842317Y170197D01*
X842396Y170130D01*
X842471Y170058D01*
X842489Y170050D01*
X842504Y170037D01*
X842600Y169998D01*
X842694Y169955D01*
X842714Y169953D01*
X842732Y169945D01*
X842899Y169927D01*
X850893Y169927D01*
X850983Y169941D01*
X851074Y169949D01*
X851104Y169961D01*
X851136Y169966D01*
X851217Y170009D01*
X851301Y170045D01*
X851333Y170071D01*
X851353Y170082D01*
X851376Y170105D01*
X851432Y170150D01*
X879042Y197760D01*
X879109Y197854D01*
X879180Y197948D01*
X879182Y197955D01*
X879185Y197960D01*
X879219Y198070D01*
X879256Y198182D01*
X879256Y198189D01*
X879258Y198195D01*
X879255Y198311D01*
X879253Y198428D01*
X879251Y198436D01*
X879251Y198441D01*
X879245Y198458D01*
X879207Y198589D01*
X878188Y201049D01*
X878188Y205351D01*
X879834Y209325D01*
X882875Y212366D01*
X883703Y212709D01*
X883803Y212771D01*
X883822Y212782D01*
X883872Y212809D01*
X883880Y212817D01*
X883903Y212831D01*
X883907Y212835D01*
X883912Y212839D01*
X883987Y212928D01*
X883995Y212938D01*
X884042Y212987D01*
X884047Y212999D01*
X884063Y213018D01*
X884065Y213023D01*
X884069Y213028D01*
X884110Y213135D01*
X884145Y213210D01*
X884147Y213226D01*
X884155Y213246D01*
X884156Y213253D01*
X884157Y213258D01*
X884158Y213276D01*
X884173Y213412D01*
X884173Y223472D01*
X884159Y223562D01*
X884151Y223653D01*
X884139Y223683D01*
X884134Y223715D01*
X884091Y223796D01*
X884055Y223880D01*
X884029Y223912D01*
X884018Y223932D01*
X883995Y223955D01*
X883950Y224011D01*
X874287Y233674D01*
X874229Y233716D01*
X874177Y233765D01*
X874130Y233787D01*
X874088Y233817D01*
X874019Y233838D01*
X873954Y233869D01*
X873902Y233874D01*
X873852Y233890D01*
X873781Y233888D01*
X873710Y233896D01*
X873659Y233885D01*
X873607Y233883D01*
X873539Y233859D01*
X873469Y233843D01*
X873424Y233817D01*
X873376Y233799D01*
X873320Y233754D01*
X873258Y233717D01*
X873224Y233678D01*
X873184Y233645D01*
X873145Y233585D01*
X873098Y233530D01*
X873079Y233482D01*
X873051Y233438D01*
X873033Y233369D01*
X873006Y233302D01*
X872998Y233231D01*
X872990Y233200D01*
X872992Y233176D01*
X872988Y233135D01*
X872988Y226002D01*
X871648Y224662D01*
X869188Y224662D01*
X869168Y224659D01*
X869149Y224661D01*
X869047Y224639D01*
X868945Y224623D01*
X868928Y224613D01*
X868908Y224609D01*
X868819Y224556D01*
X868728Y224507D01*
X868714Y224493D01*
X868697Y224483D01*
X868630Y224404D01*
X868558Y224329D01*
X868550Y224311D01*
X868537Y224296D01*
X868498Y224200D01*
X868455Y224106D01*
X868453Y224086D01*
X868445Y224068D01*
X868427Y223901D01*
X868427Y213412D01*
X868430Y213394D01*
X868428Y213376D01*
X868447Y213287D01*
X868463Y213181D01*
X868465Y213176D01*
X868466Y213170D01*
X868477Y213150D01*
X868480Y213135D01*
X868520Y213068D01*
X868521Y213067D01*
X868574Y212962D01*
X868579Y212958D01*
X868582Y212952D01*
X868600Y212935D01*
X868606Y212924D01*
X868655Y212883D01*
X868666Y212872D01*
X868750Y212790D01*
X868756Y212786D01*
X868760Y212783D01*
X868777Y212775D01*
X868788Y212769D01*
X868793Y212764D01*
X868805Y212760D01*
X868897Y212709D01*
X869725Y212366D01*
X872766Y209325D01*
X874412Y205351D01*
X874412Y201049D01*
X872766Y197075D01*
X869725Y194034D01*
X865751Y192388D01*
X861449Y192388D01*
X857475Y194034D01*
X854434Y197075D01*
X852788Y201049D01*
X852788Y205351D01*
X853131Y206179D01*
X853157Y206292D01*
X853186Y206406D01*
X853185Y206412D01*
X853187Y206418D01*
X853176Y206535D01*
X853167Y206651D01*
X853164Y206657D01*
X853164Y206663D01*
X853116Y206771D01*
X853071Y206877D01*
X853066Y206883D01*
X853064Y206888D01*
X853051Y206901D01*
X852966Y207008D01*
X802324Y257650D01*
X802250Y257703D01*
X802180Y257763D01*
X802150Y257775D01*
X802124Y257794D01*
X802037Y257821D01*
X801952Y257855D01*
X801911Y257859D01*
X801889Y257866D01*
X801857Y257865D01*
X801785Y257873D01*
X732196Y257873D01*
X732125Y257862D01*
X732053Y257860D01*
X732004Y257842D01*
X731953Y257834D01*
X731890Y257800D01*
X731822Y257775D01*
X731781Y257743D01*
X731735Y257718D01*
X731686Y257667D01*
X731630Y257622D01*
X731602Y257578D01*
X731566Y257540D01*
X731536Y257475D01*
X731497Y257415D01*
X731484Y257364D01*
X731462Y257317D01*
X731455Y257246D01*
X731437Y257176D01*
X731441Y257124D01*
X731435Y257073D01*
X731451Y257002D01*
X731456Y256931D01*
X731477Y256883D01*
X731488Y256832D01*
X731524Y256771D01*
X731552Y256705D01*
X731597Y256649D01*
X731614Y256621D01*
X731632Y256606D01*
X731657Y256574D01*
X810179Y178052D01*
X810237Y178010D01*
X810289Y177961D01*
X810336Y177939D01*
X810378Y177909D01*
X810447Y177888D01*
X810512Y177857D01*
X810564Y177852D01*
X810614Y177836D01*
X810685Y177838D01*
X810756Y177830D01*
X810807Y177841D01*
X810859Y177843D01*
X810927Y177867D01*
X810997Y177883D01*
X811041Y177909D01*
X811090Y177927D01*
X811146Y177972D01*
X811208Y178009D01*
X811242Y178048D01*
X811282Y178081D01*
X811321Y178141D01*
X811368Y178196D01*
X811387Y178244D01*
X811415Y178288D01*
X811433Y178357D01*
X811460Y178424D01*
X811468Y178495D01*
X811476Y178526D01*
X811474Y178550D01*
X811478Y178591D01*
X811478Y183304D01*
X827566Y199392D01*
X827634Y199487D01*
X827704Y199580D01*
X827706Y199586D01*
X827709Y199592D01*
X827743Y199703D01*
X827780Y199814D01*
X827780Y199821D01*
X827782Y199827D01*
X827779Y199943D01*
X827777Y200060D01*
X827775Y200067D01*
X827775Y200072D01*
X827769Y200090D01*
X827731Y200221D01*
X827388Y201049D01*
X827388Y205351D01*
X829034Y209325D01*
X832075Y212366D01*
X836049Y214012D01*
X840351Y214012D01*
X844325Y212366D01*
X847366Y209325D01*
X849012Y205351D01*
X849012Y201049D01*
X847366Y197075D01*
X844325Y194034D01*
X840351Y192388D01*
X836049Y192388D01*
X835221Y192731D01*
X835108Y192757D01*
X834994Y192786D01*
X834988Y192785D01*
X834982Y192787D01*
X834865Y192776D01*
X834749Y192767D01*
X834743Y192764D01*
X834737Y192764D01*
X834629Y192716D01*
X834523Y192671D01*
X834517Y192666D01*
X834512Y192664D01*
X834499Y192651D01*
X834392Y192566D01*
X821355Y179529D01*
X821302Y179455D01*
X821242Y179385D01*
X821230Y179355D01*
X821211Y179329D01*
X821184Y179242D01*
X821150Y179157D01*
X821146Y179116D01*
X821139Y179094D01*
X821140Y179062D01*
X821132Y178990D01*
X821132Y175249D01*
X821135Y175229D01*
X821133Y175210D01*
X821155Y175108D01*
X821171Y175006D01*
X821181Y174989D01*
X821185Y174969D01*
X821238Y174880D01*
X821287Y174789D01*
X821301Y174775D01*
X821311Y174758D01*
X821390Y174691D01*
X821465Y174619D01*
X821483Y174611D01*
X821498Y174598D01*
X821594Y174559D01*
X821688Y174516D01*
X821708Y174514D01*
X821726Y174506D01*
X821893Y174488D01*
X822408Y174488D01*
X823748Y173148D01*
X823748Y157052D01*
X822408Y155712D01*
X810202Y155712D01*
X808862Y157052D01*
X808862Y165401D01*
X808848Y165491D01*
X808840Y165582D01*
X808828Y165612D01*
X808823Y165644D01*
X808780Y165725D01*
X808744Y165809D01*
X808718Y165841D01*
X808707Y165862D01*
X808684Y165884D01*
X808639Y165940D01*
X724929Y249650D01*
X724855Y249703D01*
X724785Y249763D01*
X724755Y249775D01*
X724729Y249794D01*
X724642Y249821D01*
X724557Y249855D01*
X724516Y249859D01*
X724494Y249866D01*
X724462Y249865D01*
X724390Y249873D01*
X521462Y249873D01*
X521442Y249870D01*
X521423Y249872D01*
X521321Y249850D01*
X521219Y249834D01*
X521202Y249824D01*
X521182Y249820D01*
X521093Y249767D01*
X521002Y249718D01*
X520988Y249704D01*
X520971Y249694D01*
X520904Y249615D01*
X520832Y249540D01*
X520824Y249522D01*
X520811Y249507D01*
X520772Y249411D01*
X520729Y249317D01*
X520727Y249297D01*
X520719Y249279D01*
X520701Y249112D01*
X520701Y243274D01*
X520665Y243238D01*
X520653Y243222D01*
X520637Y243210D01*
X520581Y243122D01*
X520521Y243039D01*
X520515Y243019D01*
X520504Y243003D01*
X520479Y242902D01*
X520449Y242803D01*
X520449Y242783D01*
X520444Y242764D01*
X520452Y242661D01*
X520455Y242558D01*
X520462Y242539D01*
X520463Y242519D01*
X520504Y242424D01*
X520539Y242327D01*
X520552Y242311D01*
X520560Y242293D01*
X520665Y242162D01*
X520701Y242126D01*
X520701Y235274D01*
X519808Y234381D01*
X505844Y234381D01*
X504951Y235274D01*
X504951Y242126D01*
X504987Y242162D01*
X504999Y242178D01*
X505015Y242190D01*
X505071Y242277D01*
X505131Y242361D01*
X505137Y242380D01*
X505148Y242397D01*
X505173Y242498D01*
X505203Y242596D01*
X505203Y242616D01*
X505208Y242636D01*
X505200Y242739D01*
X505197Y242842D01*
X505190Y242861D01*
X505189Y242881D01*
X505148Y242976D01*
X505113Y243073D01*
X505100Y243089D01*
X505092Y243107D01*
X504987Y243238D01*
X504951Y243274D01*
X504951Y249492D01*
X504948Y249512D01*
X504950Y249531D01*
X504928Y249633D01*
X504912Y249735D01*
X504902Y249752D01*
X504898Y249772D01*
X504845Y249861D01*
X504796Y249952D01*
X504782Y249966D01*
X504772Y249983D01*
X504693Y250050D01*
X504618Y250122D01*
X504600Y250130D01*
X504585Y250143D01*
X504489Y250182D01*
X504395Y250225D01*
X504375Y250227D01*
X504357Y250235D01*
X504190Y250253D01*
X502478Y250253D01*
X491185Y261546D01*
X491169Y261557D01*
X491157Y261573D01*
X491070Y261629D01*
X490986Y261689D01*
X490967Y261695D01*
X490950Y261706D01*
X490849Y261731D01*
X490751Y261762D01*
X490731Y261761D01*
X490711Y261766D01*
X490608Y261758D01*
X490505Y261755D01*
X490486Y261748D01*
X490466Y261747D01*
X490371Y261706D01*
X490274Y261671D01*
X490258Y261658D01*
X490240Y261650D01*
X490109Y261546D01*
X487672Y259109D01*
X484381Y257746D01*
X480819Y257746D01*
X477528Y259109D01*
X475009Y261628D01*
X473646Y264919D01*
X473646Y268481D01*
X475009Y271772D01*
X477528Y274291D01*
X480819Y275654D01*
X484381Y275654D01*
X487672Y274291D01*
X490214Y271750D01*
X490287Y271697D01*
X490357Y271637D01*
X490387Y271625D01*
X490413Y271606D01*
X490500Y271579D01*
X490585Y271545D01*
X490626Y271541D01*
X490648Y271534D01*
X490681Y271535D01*
X490752Y271527D01*
X494856Y271527D01*
X502890Y263493D01*
X502948Y263451D01*
X503000Y263402D01*
X503047Y263380D01*
X503089Y263350D01*
X503158Y263329D01*
X503223Y263298D01*
X503275Y263293D01*
X503325Y263277D01*
X503396Y263279D01*
X503467Y263271D01*
X503518Y263282D01*
X503570Y263284D01*
X503638Y263308D01*
X503708Y263324D01*
X503753Y263350D01*
X503801Y263368D01*
X503857Y263413D01*
X503919Y263450D01*
X503953Y263489D01*
X503993Y263522D01*
X504032Y263582D01*
X504079Y263637D01*
X504098Y263685D01*
X504126Y263729D01*
X504144Y263798D01*
X504171Y263865D01*
X504179Y263936D01*
X504187Y263967D01*
X504185Y263991D01*
X504189Y264032D01*
X504189Y266441D01*
X504728Y266980D01*
X504781Y267054D01*
X504841Y267124D01*
X504853Y267154D01*
X504872Y267180D01*
X504899Y267267D01*
X504933Y267352D01*
X504937Y267393D01*
X504944Y267415D01*
X504943Y267447D01*
X504951Y267519D01*
X504951Y274126D01*
X504987Y274162D01*
X504999Y274178D01*
X505015Y274190D01*
X505071Y274277D01*
X505131Y274361D01*
X505137Y274380D01*
X505148Y274397D01*
X505173Y274498D01*
X505203Y274596D01*
X505203Y274616D01*
X505208Y274636D01*
X505200Y274739D01*
X505197Y274842D01*
X505190Y274861D01*
X505189Y274881D01*
X505148Y274976D01*
X505113Y275073D01*
X505100Y275089D01*
X505092Y275107D01*
X504987Y275238D01*
X504951Y275274D01*
X504951Y282126D01*
X504987Y282162D01*
X504999Y282178D01*
X505015Y282190D01*
X505044Y282236D01*
X505068Y282261D01*
X505084Y282296D01*
X505131Y282361D01*
X505137Y282380D01*
X505148Y282397D01*
X505167Y282475D01*
X505171Y282484D01*
X505173Y282497D01*
X505173Y282498D01*
X505203Y282596D01*
X505203Y282616D01*
X505208Y282636D01*
X505200Y282739D01*
X505197Y282842D01*
X505190Y282861D01*
X505189Y282881D01*
X505148Y282976D01*
X505113Y283073D01*
X505100Y283089D01*
X505092Y283107D01*
X504987Y283238D01*
X504951Y283274D01*
X504951Y290126D01*
X504987Y290162D01*
X504999Y290178D01*
X505015Y290190D01*
X505071Y290277D01*
X505131Y290361D01*
X505137Y290380D01*
X505148Y290397D01*
X505173Y290498D01*
X505203Y290596D01*
X505203Y290616D01*
X505208Y290636D01*
X505200Y290739D01*
X505197Y290842D01*
X505190Y290861D01*
X505189Y290881D01*
X505148Y290976D01*
X505113Y291073D01*
X505100Y291089D01*
X505092Y291107D01*
X504987Y291238D01*
X504951Y291274D01*
X504951Y298126D01*
X505844Y299019D01*
X519808Y299019D01*
X520701Y298126D01*
X520701Y291274D01*
X520665Y291238D01*
X520653Y291222D01*
X520637Y291210D01*
X520581Y291122D01*
X520521Y291039D01*
X520515Y291019D01*
X520504Y291003D01*
X520479Y290902D01*
X520449Y290803D01*
X520449Y290783D01*
X520444Y290764D01*
X520452Y290661D01*
X520455Y290558D01*
X520462Y290539D01*
X520463Y290519D01*
X520504Y290424D01*
X520539Y290327D01*
X520552Y290311D01*
X520560Y290293D01*
X520665Y290162D01*
X520701Y290126D01*
X520701Y283274D01*
X520665Y283238D01*
X520653Y283222D01*
X520637Y283210D01*
X520581Y283122D01*
X520521Y283039D01*
X520515Y283019D01*
X520504Y283003D01*
X520479Y282902D01*
X520449Y282803D01*
X520449Y282783D01*
X520444Y282764D01*
X520452Y282661D01*
X520455Y282558D01*
X520462Y282539D01*
X520463Y282519D01*
X520501Y282430D01*
X520506Y282409D01*
X520515Y282395D01*
X520539Y282327D01*
X520552Y282311D01*
X520560Y282293D01*
X520622Y282215D01*
X520632Y282198D01*
X520643Y282189D01*
X520665Y282162D01*
X520701Y282126D01*
X520701Y278287D01*
X520712Y278216D01*
X520714Y278144D01*
X520732Y278096D01*
X520740Y278044D01*
X520774Y277981D01*
X520799Y277913D01*
X520831Y277873D01*
X520856Y277827D01*
X520908Y277777D01*
X520952Y277721D01*
X520996Y277693D01*
X521034Y277657D01*
X521099Y277627D01*
X521159Y277588D01*
X521210Y277576D01*
X521257Y277554D01*
X521328Y277546D01*
X521398Y277528D01*
X521450Y277532D01*
X521501Y277527D01*
X521572Y277542D01*
X521643Y277548D01*
X521691Y277568D01*
X521742Y277579D01*
X521803Y277616D01*
X521869Y277644D01*
X521925Y277689D01*
X521953Y277705D01*
X521968Y277723D01*
X522000Y277749D01*
X529112Y284861D01*
X529165Y284935D01*
X529225Y285004D01*
X529237Y285034D01*
X529256Y285060D01*
X529283Y285147D01*
X529317Y285232D01*
X529321Y285273D01*
X529328Y285296D01*
X529327Y285328D01*
X529335Y285399D01*
X529335Y310038D01*
X539656Y320358D01*
X542895Y320358D01*
X542985Y320373D01*
X543076Y320380D01*
X543105Y320393D01*
X543137Y320398D01*
X543218Y320441D01*
X543302Y320476D01*
X543334Y320502D01*
X543355Y320513D01*
X543377Y320536D01*
X543433Y320581D01*
X544416Y321565D01*
X623984Y321565D01*
X645135Y300413D01*
X645217Y300355D01*
X645271Y300308D01*
X645290Y300301D01*
X645324Y300275D01*
X645330Y300273D01*
X645335Y300270D01*
X645446Y300236D01*
X645473Y300227D01*
X645499Y300216D01*
X645509Y300215D01*
X645558Y300199D01*
X645564Y300199D01*
X645570Y300197D01*
X645650Y300200D01*
X645666Y300198D01*
X645691Y300198D01*
X645709Y300201D01*
X645804Y300202D01*
X645811Y300204D01*
X645816Y300204D01*
X645833Y300210D01*
X645918Y300235D01*
X645934Y300237D01*
X645942Y300242D01*
X645965Y300248D01*
X646070Y300292D01*
X649330Y300292D01*
X652341Y299045D01*
X654645Y296741D01*
X655892Y293730D01*
X655892Y290470D01*
X654645Y287459D01*
X652341Y285155D01*
X649330Y283908D01*
X646070Y283908D01*
X643059Y285155D01*
X640755Y287459D01*
X639508Y290470D01*
X639508Y293730D01*
X639552Y293835D01*
X639561Y293876D01*
X639574Y293903D01*
X639579Y293952D01*
X639607Y294063D01*
X639606Y294069D01*
X639608Y294075D01*
X639597Y294191D01*
X639588Y294308D01*
X639585Y294313D01*
X639585Y294320D01*
X639537Y294427D01*
X639491Y294534D01*
X639487Y294540D01*
X639485Y294544D01*
X639472Y294558D01*
X639387Y294665D01*
X620839Y313212D01*
X620765Y313265D01*
X620696Y313325D01*
X620666Y313337D01*
X620640Y313356D01*
X620553Y313383D01*
X620468Y313417D01*
X620427Y313421D01*
X620404Y313428D01*
X620372Y313427D01*
X620301Y313435D01*
X551966Y313435D01*
X551895Y313424D01*
X551823Y313422D01*
X551774Y313404D01*
X551723Y313396D01*
X551660Y313362D01*
X551592Y313337D01*
X551552Y313305D01*
X551506Y313280D01*
X551456Y313228D01*
X551400Y313184D01*
X551372Y313140D01*
X551336Y313102D01*
X551306Y313037D01*
X551267Y312977D01*
X551255Y312926D01*
X551233Y312879D01*
X551225Y312808D01*
X551207Y312738D01*
X551211Y312686D01*
X551206Y312635D01*
X551221Y312564D01*
X551226Y312493D01*
X551247Y312445D01*
X551258Y312394D01*
X551295Y312333D01*
X551323Y312267D01*
X551367Y312211D01*
X551384Y312183D01*
X551402Y312168D01*
X551427Y312136D01*
X553691Y309872D01*
X555054Y306581D01*
X555054Y303019D01*
X553691Y299728D01*
X551150Y297186D01*
X551097Y297113D01*
X551037Y297043D01*
X551025Y297013D01*
X551006Y296987D01*
X550979Y296900D01*
X550945Y296815D01*
X550941Y296774D01*
X550934Y296752D01*
X550935Y296719D01*
X550927Y296648D01*
X550927Y277401D01*
X547876Y274350D01*
X542352Y268826D01*
X542310Y268768D01*
X542261Y268716D01*
X542239Y268669D01*
X542209Y268627D01*
X542188Y268558D01*
X542157Y268493D01*
X542152Y268441D01*
X542136Y268391D01*
X542138Y268320D01*
X542130Y268249D01*
X542141Y268198D01*
X542143Y268146D01*
X542167Y268078D01*
X542183Y268008D01*
X542209Y267963D01*
X542227Y267915D01*
X542272Y267859D01*
X542309Y267797D01*
X542348Y267763D01*
X542381Y267723D01*
X542441Y267684D01*
X542496Y267637D01*
X542544Y267618D01*
X542588Y267590D01*
X542657Y267572D01*
X542724Y267545D01*
X542795Y267537D01*
X542826Y267529D01*
X542850Y267531D01*
X542891Y267527D01*
X806099Y267527D01*
X809150Y264476D01*
X857474Y216152D01*
X857532Y216110D01*
X857584Y216061D01*
X857631Y216039D01*
X857673Y216009D01*
X857742Y215988D01*
X857807Y215957D01*
X857859Y215952D01*
X857909Y215936D01*
X857980Y215938D01*
X858051Y215930D01*
X858102Y215941D01*
X858154Y215943D01*
X858222Y215967D01*
X858292Y215983D01*
X858337Y216009D01*
X858385Y216027D01*
X858441Y216072D01*
X858503Y216109D01*
X858537Y216148D01*
X858577Y216181D01*
X858616Y216241D01*
X858663Y216296D01*
X858682Y216344D01*
X858710Y216388D01*
X858728Y216457D01*
X858755Y216524D01*
X858763Y216595D01*
X858771Y216626D01*
X858769Y216650D01*
X858773Y216691D01*
X858773Y223901D01*
X858770Y223921D01*
X858772Y223940D01*
X858750Y224042D01*
X858734Y224144D01*
X858724Y224161D01*
X858720Y224181D01*
X858667Y224270D01*
X858618Y224361D01*
X858604Y224375D01*
X858594Y224392D01*
X858515Y224459D01*
X858440Y224531D01*
X858422Y224539D01*
X858407Y224552D01*
X858311Y224591D01*
X858217Y224634D01*
X858197Y224636D01*
X858179Y224644D01*
X858012Y224662D01*
X855552Y224662D01*
X854212Y226002D01*
X854212Y238208D01*
X855552Y239548D01*
X865883Y239548D01*
X865954Y239559D01*
X866026Y239561D01*
X866075Y239579D01*
X866126Y239587D01*
X866190Y239621D01*
X866257Y239646D01*
X866298Y239678D01*
X866344Y239703D01*
X866393Y239755D01*
X866449Y239799D01*
X866477Y239843D01*
X866513Y239881D01*
X866543Y239946D01*
X866582Y240006D01*
X866595Y240057D01*
X866617Y240104D01*
X866624Y240175D01*
X866642Y240245D01*
X866638Y240297D01*
X866644Y240348D01*
X866628Y240419D01*
X866623Y240490D01*
X866602Y240538D01*
X866591Y240589D01*
X866555Y240650D01*
X866527Y240716D01*
X866482Y240772D01*
X866465Y240800D01*
X866447Y240815D01*
X866422Y240847D01*
X864440Y242829D01*
X864366Y242882D01*
X864296Y242942D01*
X864266Y242954D01*
X864240Y242973D01*
X864153Y243000D01*
X864068Y243034D01*
X864027Y243038D01*
X864005Y243045D01*
X863973Y243044D01*
X863901Y243052D01*
X855552Y243052D01*
X854212Y244392D01*
X854212Y252741D01*
X854198Y252831D01*
X854190Y252922D01*
X854178Y252952D01*
X854173Y252984D01*
X854130Y253065D01*
X854094Y253149D01*
X854068Y253181D01*
X854057Y253202D01*
X854034Y253224D01*
X853989Y253280D01*
X820219Y287050D01*
X820145Y287103D01*
X820075Y287163D01*
X820045Y287175D01*
X820019Y287194D01*
X819932Y287221D01*
X819847Y287255D01*
X819806Y287259D01*
X819784Y287266D01*
X819752Y287265D01*
X819680Y287273D01*
X721901Y287273D01*
X658624Y350550D01*
X658550Y350603D01*
X658480Y350663D01*
X658450Y350675D01*
X658424Y350694D01*
X658337Y350721D01*
X658252Y350755D01*
X658211Y350759D01*
X658189Y350766D01*
X658157Y350765D01*
X658085Y350773D01*
X484915Y350773D01*
X484825Y350759D01*
X484734Y350751D01*
X484704Y350739D01*
X484672Y350734D01*
X484591Y350691D01*
X484507Y350655D01*
X484475Y350629D01*
X484454Y350618D01*
X484432Y350595D01*
X484376Y350550D01*
X478896Y345070D01*
X478843Y344996D01*
X478783Y344926D01*
X478771Y344896D01*
X478752Y344870D01*
X478725Y344783D01*
X478691Y344698D01*
X478687Y344657D01*
X478680Y344635D01*
X478681Y344603D01*
X478673Y344531D01*
X478673Y340574D01*
X478676Y340555D01*
X478674Y340535D01*
X478696Y340434D01*
X478712Y340332D01*
X478722Y340314D01*
X478726Y340295D01*
X478779Y340206D01*
X478828Y340114D01*
X478842Y340101D01*
X478852Y340084D01*
X478931Y340016D01*
X479006Y339945D01*
X479024Y339937D01*
X479039Y339924D01*
X479135Y339885D01*
X479229Y339841D01*
X479249Y339839D01*
X479267Y339832D01*
X479434Y339813D01*
X480616Y339813D01*
X482008Y338422D01*
X482104Y338352D01*
X482200Y338282D01*
X482204Y338281D01*
X482207Y338278D01*
X482320Y338244D01*
X482434Y338207D01*
X482438Y338207D01*
X482442Y338206D01*
X482561Y338209D01*
X482680Y338211D01*
X482684Y338212D01*
X482688Y338212D01*
X482800Y338253D01*
X482912Y338293D01*
X482915Y338295D01*
X482919Y338297D01*
X483013Y338372D01*
X483106Y338444D01*
X483109Y338448D01*
X483111Y338450D01*
X483119Y338462D01*
X483205Y338579D01*
X483498Y339087D01*
X483971Y339560D01*
X484550Y339894D01*
X485197Y340067D01*
X489831Y340067D01*
X489831Y330962D01*
X489834Y330942D01*
X489832Y330923D01*
X489854Y330821D01*
X489871Y330719D01*
X489880Y330702D01*
X489884Y330682D01*
X489937Y330593D01*
X489986Y330502D01*
X490000Y330488D01*
X490010Y330471D01*
X490089Y330404D01*
X490164Y330333D01*
X490182Y330324D01*
X490197Y330311D01*
X490293Y330272D01*
X490387Y330229D01*
X490407Y330227D01*
X490425Y330219D01*
X490592Y330201D01*
X491355Y330201D01*
X491355Y330199D01*
X490592Y330199D01*
X490572Y330196D01*
X490553Y330198D01*
X490451Y330176D01*
X490349Y330159D01*
X490332Y330150D01*
X490312Y330146D01*
X490223Y330093D01*
X490132Y330044D01*
X490118Y330030D01*
X490101Y330020D01*
X490034Y329941D01*
X489963Y329866D01*
X489954Y329848D01*
X489941Y329833D01*
X489902Y329737D01*
X489859Y329643D01*
X489857Y329623D01*
X489849Y329605D01*
X489831Y329438D01*
X489831Y320333D01*
X485197Y320333D01*
X484550Y320506D01*
X483971Y320840D01*
X483498Y321313D01*
X483205Y321821D01*
X483129Y321913D01*
X483056Y322005D01*
X483052Y322008D01*
X483049Y322011D01*
X482948Y322074D01*
X482849Y322138D01*
X482845Y322139D01*
X482841Y322142D01*
X482725Y322170D01*
X482610Y322198D01*
X482606Y322198D01*
X482602Y322199D01*
X482483Y322189D01*
X482365Y322179D01*
X482361Y322178D01*
X482357Y322177D01*
X482247Y322129D01*
X482139Y322083D01*
X482135Y322080D01*
X482132Y322079D01*
X482121Y322069D01*
X482008Y321978D01*
X480616Y320587D01*
X479434Y320587D01*
X479414Y320584D01*
X479395Y320586D01*
X479293Y320564D01*
X479191Y320547D01*
X479174Y320538D01*
X479154Y320533D01*
X479065Y320480D01*
X478974Y320432D01*
X478960Y320418D01*
X478943Y320407D01*
X478876Y320329D01*
X478804Y320254D01*
X478796Y320236D01*
X478783Y320220D01*
X478744Y320124D01*
X478701Y320031D01*
X478699Y320011D01*
X478691Y319992D01*
X478673Y319826D01*
X478673Y319278D01*
X478676Y319258D01*
X478674Y319239D01*
X478696Y319137D01*
X478712Y319035D01*
X478722Y319018D01*
X478726Y318998D01*
X478779Y318909D01*
X478828Y318818D01*
X478842Y318804D01*
X478852Y318787D01*
X478931Y318720D01*
X479006Y318648D01*
X479024Y318640D01*
X479039Y318627D01*
X479135Y318588D01*
X479229Y318545D01*
X479249Y318543D01*
X479267Y318535D01*
X479434Y318517D01*
X480504Y318517D01*
X480504Y310261D01*
X480507Y310242D01*
X480505Y310222D01*
X480527Y310120D01*
X480543Y310018D01*
X480553Y310001D01*
X480557Y309981D01*
X480610Y309892D01*
X480659Y309801D01*
X480673Y309787D01*
X480683Y309770D01*
X480762Y309703D01*
X480837Y309632D01*
X480854Y309624D01*
X480805Y309597D01*
X480791Y309583D01*
X480774Y309573D01*
X480707Y309494D01*
X480635Y309419D01*
X480627Y309401D01*
X480614Y309386D01*
X480575Y309289D01*
X480532Y309196D01*
X480530Y309176D01*
X480522Y309158D01*
X480504Y308991D01*
X480504Y300735D01*
X479488Y300735D01*
X479468Y300732D01*
X479449Y300734D01*
X479348Y300712D01*
X479245Y300696D01*
X479228Y300686D01*
X479208Y300682D01*
X479119Y300629D01*
X479028Y300580D01*
X479014Y300566D01*
X478997Y300556D01*
X478930Y300477D01*
X478859Y300402D01*
X478850Y300384D01*
X478837Y300369D01*
X478798Y300273D01*
X478755Y300179D01*
X478753Y300159D01*
X478745Y300141D01*
X478727Y299974D01*
X478727Y294101D01*
X471899Y287273D01*
X455201Y287273D01*
X452373Y290101D01*
X452373Y300990D01*
X452372Y300997D01*
X452372Y300998D01*
X452371Y301005D01*
X452370Y301010D01*
X452372Y301029D01*
X452350Y301131D01*
X452334Y301233D01*
X452324Y301250D01*
X452320Y301270D01*
X452267Y301359D01*
X452218Y301450D01*
X452204Y301464D01*
X452194Y301481D01*
X452115Y301548D01*
X452040Y301620D01*
X452022Y301628D01*
X452007Y301641D01*
X451911Y301680D01*
X451817Y301723D01*
X451797Y301725D01*
X451779Y301733D01*
X451612Y301751D01*
X446474Y301751D01*
X446438Y301787D01*
X446422Y301799D01*
X446410Y301815D01*
X446323Y301871D01*
X446239Y301931D01*
X446220Y301937D01*
X446203Y301948D01*
X446102Y301973D01*
X446004Y302003D01*
X445984Y302003D01*
X445964Y302008D01*
X445861Y302000D01*
X445758Y301997D01*
X445739Y301990D01*
X445719Y301989D01*
X445624Y301948D01*
X445527Y301913D01*
X445511Y301900D01*
X445493Y301892D01*
X445362Y301787D01*
X445326Y301751D01*
X438474Y301751D01*
X437581Y302644D01*
X437581Y316608D01*
X438474Y317501D01*
X445326Y317501D01*
X445362Y317465D01*
X445378Y317453D01*
X445390Y317437D01*
X445478Y317381D01*
X445561Y317321D01*
X445581Y317315D01*
X445597Y317304D01*
X445698Y317279D01*
X445797Y317249D01*
X445817Y317249D01*
X445836Y317244D01*
X445939Y317252D01*
X446042Y317255D01*
X446061Y317262D01*
X446081Y317263D01*
X446176Y317304D01*
X446273Y317339D01*
X446289Y317352D01*
X446307Y317360D01*
X446438Y317465D01*
X446474Y317501D01*
X453081Y317501D01*
X453172Y317515D01*
X453262Y317523D01*
X453292Y317535D01*
X453324Y317540D01*
X453405Y317583D01*
X453489Y317619D01*
X453521Y317645D01*
X453542Y317656D01*
X453564Y317679D01*
X453620Y317724D01*
X454159Y318263D01*
X461781Y318263D01*
X461894Y318281D01*
X462008Y318297D01*
X462018Y318301D01*
X462024Y318302D01*
X462044Y318313D01*
X462095Y318336D01*
X462772Y318517D01*
X464504Y318517D01*
X464504Y310261D01*
X464507Y310242D01*
X464505Y310222D01*
X464527Y310120D01*
X464543Y310018D01*
X464553Y310001D01*
X464557Y309981D01*
X464610Y309892D01*
X464659Y309801D01*
X464673Y309787D01*
X464683Y309770D01*
X464762Y309703D01*
X464837Y309632D01*
X464854Y309624D01*
X464805Y309597D01*
X464791Y309583D01*
X464774Y309573D01*
X464707Y309494D01*
X464635Y309419D01*
X464627Y309401D01*
X464614Y309386D01*
X464575Y309289D01*
X464532Y309196D01*
X464530Y309176D01*
X464522Y309158D01*
X464504Y308991D01*
X464504Y300735D01*
X463108Y300735D01*
X463088Y300732D01*
X463069Y300734D01*
X462968Y300712D01*
X462865Y300696D01*
X462848Y300686D01*
X462828Y300682D01*
X462739Y300629D01*
X462648Y300580D01*
X462634Y300566D01*
X462617Y300556D01*
X462550Y300477D01*
X462479Y300402D01*
X462470Y300384D01*
X462457Y300369D01*
X462418Y300273D01*
X462375Y300179D01*
X462373Y300159D01*
X462365Y300141D01*
X462347Y299974D01*
X462347Y299278D01*
X462250Y299181D01*
X462203Y299115D01*
X462191Y299103D01*
X462189Y299097D01*
X462137Y299037D01*
X462125Y299007D01*
X462106Y298981D01*
X462079Y298894D01*
X462045Y298809D01*
X462041Y298768D01*
X462034Y298746D01*
X462035Y298714D01*
X462027Y298642D01*
X462027Y297688D01*
X462030Y297668D01*
X462028Y297649D01*
X462050Y297547D01*
X462066Y297445D01*
X462076Y297428D01*
X462080Y297408D01*
X462133Y297319D01*
X462182Y297228D01*
X462196Y297214D01*
X462206Y297197D01*
X462285Y297130D01*
X462360Y297058D01*
X462378Y297050D01*
X462393Y297037D01*
X462489Y296998D01*
X462583Y296955D01*
X462603Y296953D01*
X462621Y296945D01*
X462788Y296927D01*
X467585Y296927D01*
X467675Y296941D01*
X467766Y296949D01*
X467796Y296961D01*
X467828Y296966D01*
X467909Y297009D01*
X467993Y297045D01*
X468025Y297071D01*
X468045Y297082D01*
X468068Y297105D01*
X468124Y297150D01*
X468850Y297876D01*
X468903Y297950D01*
X468963Y298020D01*
X468975Y298050D01*
X468994Y298076D01*
X469021Y298163D01*
X469055Y298248D01*
X469059Y298289D01*
X469066Y298311D01*
X469065Y298343D01*
X469073Y298415D01*
X469073Y299974D01*
X469070Y299994D01*
X469072Y300013D01*
X469050Y300115D01*
X469034Y300217D01*
X469024Y300234D01*
X469020Y300254D01*
X468967Y300343D01*
X468918Y300434D01*
X468904Y300448D01*
X468894Y300465D01*
X468815Y300532D01*
X468740Y300604D01*
X468722Y300612D01*
X468707Y300625D01*
X468611Y300664D01*
X468517Y300707D01*
X468497Y300709D01*
X468479Y300717D01*
X468312Y300735D01*
X467296Y300735D01*
X467296Y308991D01*
X467293Y309010D01*
X467295Y309030D01*
X467273Y309132D01*
X467257Y309234D01*
X467247Y309251D01*
X467243Y309271D01*
X467190Y309360D01*
X467141Y309451D01*
X467127Y309465D01*
X467117Y309482D01*
X467038Y309549D01*
X466963Y309620D01*
X466945Y309628D01*
X466995Y309655D01*
X467009Y309669D01*
X467026Y309679D01*
X467093Y309758D01*
X467165Y309833D01*
X467173Y309851D01*
X467186Y309866D01*
X467225Y309963D01*
X467268Y310056D01*
X467270Y310076D01*
X467278Y310094D01*
X467296Y310261D01*
X467296Y318517D01*
X468258Y318517D01*
X468278Y318520D01*
X468297Y318518D01*
X468399Y318540D01*
X468501Y318556D01*
X468518Y318566D01*
X468538Y318570D01*
X468627Y318623D01*
X468718Y318672D01*
X468732Y318686D01*
X468749Y318696D01*
X468816Y318775D01*
X468888Y318850D01*
X468896Y318868D01*
X468909Y318883D01*
X468948Y318979D01*
X468991Y319073D01*
X468993Y319093D01*
X469001Y319111D01*
X469019Y319278D01*
X469019Y319826D01*
X469016Y319845D01*
X469018Y319865D01*
X468996Y319966D01*
X468980Y320068D01*
X468970Y320086D01*
X468966Y320105D01*
X468913Y320194D01*
X468864Y320286D01*
X468850Y320299D01*
X468840Y320316D01*
X468761Y320384D01*
X468686Y320455D01*
X468668Y320463D01*
X468653Y320476D01*
X468557Y320515D01*
X468463Y320559D01*
X468443Y320561D01*
X468425Y320568D01*
X468258Y320587D01*
X467076Y320587D01*
X465736Y321926D01*
X465736Y338474D01*
X467076Y339813D01*
X468258Y339813D01*
X468278Y339816D01*
X468297Y339814D01*
X468399Y339836D01*
X468501Y339853D01*
X468518Y339862D01*
X468538Y339867D01*
X468627Y339920D01*
X468718Y339968D01*
X468732Y339982D01*
X468749Y339993D01*
X468816Y340071D01*
X468888Y340146D01*
X468896Y340164D01*
X468909Y340180D01*
X468948Y340276D01*
X468991Y340369D01*
X468993Y340389D01*
X469001Y340408D01*
X469019Y340574D01*
X469019Y348845D01*
X472070Y351896D01*
X477550Y357376D01*
X480601Y360427D01*
X662399Y360427D01*
X725676Y297150D01*
X725750Y297097D01*
X725820Y297037D01*
X725850Y297025D01*
X725876Y297006D01*
X725963Y296979D01*
X726048Y296945D01*
X726089Y296941D01*
X726111Y296934D01*
X726143Y296935D01*
X726215Y296927D01*
X823994Y296927D01*
X827045Y293876D01*
X862760Y258161D01*
X862834Y258108D01*
X862904Y258048D01*
X862934Y258036D01*
X862960Y258017D01*
X863047Y257990D01*
X863132Y257956D01*
X863173Y257952D01*
X863195Y257945D01*
X863227Y257946D01*
X863299Y257938D01*
X871648Y257938D01*
X872988Y256598D01*
X872988Y248249D01*
X873002Y248159D01*
X873010Y248068D01*
X873022Y248038D01*
X873027Y248006D01*
X873070Y247925D01*
X873106Y247841D01*
X873132Y247809D01*
X873143Y247789D01*
X873166Y247766D01*
X873211Y247710D01*
X873784Y247137D01*
X873858Y247084D01*
X873928Y247024D01*
X873958Y247012D01*
X873984Y246993D01*
X874071Y246966D01*
X874156Y246932D01*
X874197Y246928D01*
X874219Y246921D01*
X874251Y246922D01*
X874323Y246914D01*
X874699Y246914D01*
X893827Y227786D01*
X893827Y213412D01*
X893830Y213394D01*
X893828Y213376D01*
X893847Y213287D01*
X893863Y213181D01*
X893865Y213176D01*
X893866Y213170D01*
X893877Y213150D01*
X893880Y213135D01*
X893920Y213068D01*
X893921Y213067D01*
X893974Y212962D01*
X893979Y212958D01*
X893982Y212952D01*
X894000Y212935D01*
X894006Y212924D01*
X894055Y212883D01*
X894066Y212872D01*
X894150Y212790D01*
X894156Y212786D01*
X894160Y212783D01*
X894177Y212775D01*
X894188Y212769D01*
X894193Y212764D01*
X894205Y212760D01*
X894297Y212709D01*
X895125Y212366D01*
X898166Y209325D01*
X899812Y205351D01*
X899812Y201049D01*
X898166Y197075D01*
X896079Y194988D01*
X896041Y194935D01*
X895995Y194888D01*
X895954Y194815D01*
X895935Y194788D01*
X895930Y194770D01*
X895914Y194741D01*
X895245Y193127D01*
X860202Y158084D01*
X826752Y124634D01*
X826714Y124581D01*
X826668Y124534D01*
X826628Y124461D01*
X826609Y124434D01*
X826603Y124416D01*
X826587Y124387D01*
X825725Y122306D01*
X823394Y119975D01*
X820348Y118713D01*
X817052Y118713D01*
X814970Y119575D01*
X814907Y119590D01*
X814846Y119615D01*
X814763Y119624D01*
X814731Y119631D01*
X814712Y119630D01*
X814679Y119633D01*
X756735Y119633D01*
X754027Y120755D01*
X751848Y122934D01*
X731296Y143486D01*
X731238Y143527D01*
X731186Y143577D01*
X731139Y143599D01*
X731097Y143629D01*
X731028Y143650D01*
X730963Y143680D01*
X730911Y143686D01*
X730861Y143702D01*
X730790Y143700D01*
X730719Y143708D01*
X730668Y143696D01*
X730616Y143695D01*
X730548Y143671D01*
X730478Y143655D01*
X730433Y143629D01*
X730385Y143611D01*
X730329Y143566D01*
X730267Y143529D01*
X730233Y143490D01*
X730193Y143457D01*
X730154Y143397D01*
X730107Y143342D01*
X730088Y143294D01*
X730060Y143250D01*
X730042Y143181D01*
X730015Y143114D01*
X730007Y143043D01*
X729999Y143012D01*
X730001Y142988D01*
X729997Y142947D01*
X729997Y138487D01*
X729107Y136339D01*
X729097Y136295D01*
X729077Y136253D01*
X729069Y136176D01*
X729051Y136100D01*
X729055Y136054D01*
X729050Y136009D01*
X729067Y135932D01*
X729074Y135855D01*
X729093Y135813D01*
X729102Y135768D01*
X729142Y135701D01*
X729174Y135630D01*
X729205Y135596D01*
X729229Y135557D01*
X729288Y135506D01*
X729340Y135449D01*
X729381Y135427D01*
X729415Y135397D01*
X729488Y135368D01*
X729556Y135331D01*
X729601Y135322D01*
X729644Y135305D01*
X729780Y135290D01*
X729798Y135287D01*
X729803Y135288D01*
X729810Y135287D01*
X732348Y135287D01*
X735394Y134025D01*
X737725Y131694D01*
X738987Y128648D01*
X738987Y125352D01*
X738125Y123271D01*
X738110Y123207D01*
X738085Y123146D01*
X738076Y123063D01*
X738069Y123031D01*
X738070Y123012D01*
X738067Y122979D01*
X738067Y89748D01*
X738070Y89728D01*
X738068Y89709D01*
X738090Y89607D01*
X738106Y89505D01*
X738116Y89488D01*
X738120Y89468D01*
X738173Y89379D01*
X738222Y89288D01*
X738236Y89274D01*
X738246Y89257D01*
X738325Y89190D01*
X738400Y89118D01*
X738418Y89110D01*
X738433Y89097D01*
X738529Y89058D01*
X738623Y89015D01*
X738643Y89013D01*
X738661Y89005D01*
X738828Y88987D01*
X740547Y88987D01*
X741887Y87647D01*
X741887Y64753D01*
X740547Y63413D01*
X717653Y63413D01*
G37*
%LPD*%
%LPC*%
G36*
X415366Y146659D02*
X415366Y146659D01*
X414719Y146832D01*
X414140Y147167D01*
X414059Y147248D01*
X414042Y147260D01*
X414030Y147275D01*
X413943Y147331D01*
X413859Y147392D01*
X413840Y147398D01*
X413823Y147408D01*
X413723Y147434D01*
X413624Y147464D01*
X413604Y147464D01*
X413585Y147468D01*
X413482Y147460D01*
X413378Y147458D01*
X413359Y147451D01*
X413339Y147449D01*
X413244Y147409D01*
X413147Y147373D01*
X413131Y147361D01*
X413113Y147353D01*
X412982Y147248D01*
X412647Y146913D01*
X404753Y146913D01*
X403699Y147967D01*
X403683Y147978D01*
X403671Y147994D01*
X403584Y148050D01*
X403500Y148110D01*
X403481Y148116D01*
X403464Y148127D01*
X403363Y148152D01*
X403265Y148183D01*
X403245Y148182D01*
X403225Y148187D01*
X403122Y148179D01*
X403019Y148176D01*
X403000Y148169D01*
X402980Y148168D01*
X402885Y148127D01*
X402788Y148092D01*
X402772Y148079D01*
X402754Y148071D01*
X402623Y147967D01*
X402332Y147675D01*
X395068Y147675D01*
X394238Y148505D01*
X394222Y148517D01*
X394210Y148533D01*
X394136Y148580D01*
X394114Y148599D01*
X394102Y148604D01*
X394039Y148649D01*
X394020Y148655D01*
X394003Y148666D01*
X393902Y148691D01*
X393803Y148721D01*
X393784Y148721D01*
X393764Y148726D01*
X393661Y148718D01*
X393558Y148715D01*
X393539Y148708D01*
X393519Y148707D01*
X393424Y148666D01*
X393327Y148631D01*
X393311Y148618D01*
X393293Y148610D01*
X393227Y148558D01*
X393220Y148554D01*
X393214Y148547D01*
X393162Y148505D01*
X392332Y147675D01*
X385068Y147675D01*
X384238Y148505D01*
X384222Y148517D01*
X384210Y148533D01*
X384136Y148580D01*
X384114Y148599D01*
X384102Y148604D01*
X384039Y148649D01*
X384020Y148655D01*
X384003Y148666D01*
X383902Y148691D01*
X383803Y148721D01*
X383784Y148721D01*
X383764Y148726D01*
X383661Y148718D01*
X383558Y148715D01*
X383539Y148708D01*
X383519Y148707D01*
X383424Y148666D01*
X383327Y148631D01*
X383311Y148618D01*
X383293Y148610D01*
X383227Y148558D01*
X383220Y148554D01*
X383214Y148547D01*
X383162Y148505D01*
X382332Y147675D01*
X375068Y147675D01*
X374238Y148505D01*
X374222Y148517D01*
X374210Y148533D01*
X374136Y148580D01*
X374114Y148599D01*
X374102Y148604D01*
X374039Y148649D01*
X374020Y148655D01*
X374003Y148666D01*
X373902Y148691D01*
X373803Y148721D01*
X373784Y148721D01*
X373764Y148726D01*
X373661Y148718D01*
X373558Y148715D01*
X373539Y148708D01*
X373519Y148707D01*
X373424Y148666D01*
X373327Y148631D01*
X373311Y148618D01*
X373293Y148610D01*
X373227Y148558D01*
X373220Y148554D01*
X373214Y148547D01*
X373162Y148505D01*
X372332Y147675D01*
X365068Y147675D01*
X364175Y148568D01*
X364175Y165332D01*
X364412Y165569D01*
X364465Y165643D01*
X364525Y165712D01*
X364537Y165742D01*
X364556Y165768D01*
X364583Y165855D01*
X364617Y165940D01*
X364621Y165981D01*
X364628Y166003D01*
X364627Y166036D01*
X364635Y166107D01*
X364635Y217984D01*
X395605Y248954D01*
X395647Y249012D01*
X395697Y249064D01*
X395719Y249111D01*
X395749Y249153D01*
X395770Y249222D01*
X395800Y249287D01*
X395806Y249339D01*
X395821Y249389D01*
X395819Y249460D01*
X395827Y249531D01*
X395816Y249582D01*
X395815Y249634D01*
X395790Y249702D01*
X395775Y249772D01*
X395748Y249817D01*
X395730Y249865D01*
X395686Y249921D01*
X395649Y249983D01*
X395609Y250017D01*
X395577Y250057D01*
X395516Y250096D01*
X395462Y250143D01*
X395414Y250162D01*
X395370Y250190D01*
X395300Y250208D01*
X395234Y250235D01*
X395162Y250243D01*
X395131Y250251D01*
X395108Y250249D01*
X395067Y250253D01*
X392904Y250253D01*
X381507Y261650D01*
X381433Y261703D01*
X381363Y261763D01*
X381333Y261775D01*
X381307Y261794D01*
X381220Y261821D01*
X381135Y261855D01*
X381094Y261859D01*
X381072Y261866D01*
X381040Y261865D01*
X380968Y261873D01*
X353112Y261873D01*
X352998Y261854D01*
X352881Y261837D01*
X352876Y261835D01*
X352870Y261834D01*
X352767Y261779D01*
X352662Y261726D01*
X352658Y261721D01*
X352652Y261718D01*
X352572Y261634D01*
X352490Y261550D01*
X352486Y261544D01*
X352483Y261540D01*
X352475Y261523D01*
X352409Y261403D01*
X352066Y260575D01*
X349025Y257534D01*
X345051Y255888D01*
X340749Y255888D01*
X336775Y257534D01*
X333734Y260575D01*
X332088Y264549D01*
X332088Y268851D01*
X333734Y272825D01*
X336775Y275866D01*
X340749Y277512D01*
X345051Y277512D01*
X349025Y275866D01*
X352066Y272825D01*
X352409Y271997D01*
X352471Y271897D01*
X352531Y271797D01*
X352535Y271793D01*
X352539Y271788D01*
X352628Y271713D01*
X352718Y271637D01*
X352723Y271635D01*
X352728Y271631D01*
X352836Y271589D01*
X352946Y271545D01*
X352953Y271544D01*
X352958Y271543D01*
X352976Y271542D01*
X353112Y271527D01*
X385282Y271527D01*
X396679Y260130D01*
X396753Y260077D01*
X396823Y260017D01*
X396853Y260005D01*
X396879Y259986D01*
X396966Y259959D01*
X397051Y259925D01*
X397092Y259921D01*
X397114Y259914D01*
X397146Y259915D01*
X397218Y259907D01*
X398017Y259907D01*
X398088Y259918D01*
X398160Y259920D01*
X398209Y259938D01*
X398260Y259946D01*
X398323Y259980D01*
X398391Y260005D01*
X398431Y260037D01*
X398477Y260062D01*
X398527Y260114D01*
X398583Y260158D01*
X398611Y260202D01*
X398647Y260240D01*
X398677Y260305D01*
X398716Y260365D01*
X398728Y260416D01*
X398750Y260463D01*
X398758Y260534D01*
X398776Y260604D01*
X398772Y260656D01*
X398778Y260707D01*
X398762Y260778D01*
X398757Y260849D01*
X398736Y260897D01*
X398725Y260948D01*
X398688Y261009D01*
X398660Y261075D01*
X398616Y261131D01*
X398599Y261159D01*
X398581Y261174D01*
X398556Y261206D01*
X397824Y261938D01*
X372712Y287050D01*
X372638Y287103D01*
X372568Y287163D01*
X372538Y287175D01*
X372512Y287194D01*
X372425Y287221D01*
X372340Y287255D01*
X372299Y287259D01*
X372277Y287266D01*
X372245Y287265D01*
X372173Y287273D01*
X353112Y287273D01*
X352998Y287254D01*
X352881Y287237D01*
X352876Y287235D01*
X352870Y287234D01*
X352767Y287179D01*
X352662Y287126D01*
X352658Y287121D01*
X352652Y287118D01*
X352572Y287034D01*
X352490Y286950D01*
X352486Y286944D01*
X352483Y286940D01*
X352475Y286923D01*
X352409Y286803D01*
X352066Y285975D01*
X349025Y282934D01*
X345051Y281288D01*
X340749Y281288D01*
X336775Y282934D01*
X333734Y285975D01*
X333391Y286803D01*
X333329Y286903D01*
X333269Y287003D01*
X333265Y287007D01*
X333261Y287012D01*
X333172Y287087D01*
X333082Y287163D01*
X333077Y287165D01*
X333072Y287169D01*
X332964Y287211D01*
X332854Y287255D01*
X332847Y287256D01*
X332842Y287257D01*
X332824Y287258D01*
X332688Y287273D01*
X306306Y287273D01*
X280240Y313339D01*
X280166Y313392D01*
X280096Y313452D01*
X280066Y313464D01*
X280040Y313483D01*
X279953Y313510D01*
X279868Y313544D01*
X279827Y313548D01*
X279805Y313555D01*
X279773Y313554D01*
X279701Y313562D01*
X271352Y313562D01*
X270012Y314902D01*
X270012Y327108D01*
X271352Y328448D01*
X287448Y328448D01*
X288788Y327108D01*
X288788Y318759D01*
X288802Y318669D01*
X288810Y318578D01*
X288822Y318548D01*
X288827Y318516D01*
X288870Y318435D01*
X288906Y318351D01*
X288932Y318319D01*
X288943Y318299D01*
X288966Y318276D01*
X289011Y318220D01*
X310081Y297150D01*
X310155Y297097D01*
X310225Y297037D01*
X310255Y297025D01*
X310281Y297006D01*
X310368Y296979D01*
X310453Y296945D01*
X310494Y296941D01*
X310516Y296934D01*
X310548Y296935D01*
X310620Y296927D01*
X332688Y296927D01*
X332802Y296946D01*
X332919Y296963D01*
X332924Y296965D01*
X332930Y296966D01*
X333033Y297021D01*
X333138Y297074D01*
X333142Y297079D01*
X333148Y297082D01*
X333228Y297166D01*
X333310Y297250D01*
X333314Y297256D01*
X333317Y297260D01*
X333325Y297277D01*
X333391Y297397D01*
X333734Y298225D01*
X336775Y301266D01*
X340749Y302912D01*
X345051Y302912D01*
X349025Y301266D01*
X352066Y298225D01*
X352409Y297397D01*
X352471Y297297D01*
X352531Y297197D01*
X352535Y297193D01*
X352539Y297188D01*
X352629Y297113D01*
X352718Y297037D01*
X352723Y297035D01*
X352728Y297031D01*
X352836Y296989D01*
X352946Y296945D01*
X352953Y296944D01*
X352958Y296943D01*
X352976Y296942D01*
X353112Y296927D01*
X371414Y296927D01*
X371485Y296938D01*
X371557Y296940D01*
X371606Y296958D01*
X371657Y296966D01*
X371721Y297000D01*
X371788Y297025D01*
X371829Y297057D01*
X371875Y297082D01*
X371924Y297134D01*
X371980Y297178D01*
X372008Y297222D01*
X372044Y297260D01*
X372074Y297325D01*
X372113Y297385D01*
X372126Y297436D01*
X372148Y297483D01*
X372155Y297554D01*
X372173Y297624D01*
X372169Y297676D01*
X372175Y297727D01*
X372159Y297798D01*
X372154Y297869D01*
X372133Y297917D01*
X372122Y297968D01*
X372086Y298029D01*
X372058Y298095D01*
X372013Y298151D01*
X371996Y298179D01*
X371978Y298194D01*
X371953Y298226D01*
X357729Y312450D01*
X357655Y312503D01*
X357585Y312563D01*
X357555Y312575D01*
X357529Y312594D01*
X357442Y312621D01*
X357357Y312655D01*
X357316Y312659D01*
X357294Y312666D01*
X357262Y312665D01*
X357190Y312673D01*
X353112Y312673D01*
X352998Y312654D01*
X352881Y312637D01*
X352876Y312635D01*
X352870Y312634D01*
X352767Y312579D01*
X352662Y312526D01*
X352658Y312521D01*
X352652Y312518D01*
X352572Y312434D01*
X352490Y312350D01*
X352486Y312344D01*
X352483Y312340D01*
X352475Y312323D01*
X352409Y312203D01*
X352066Y311375D01*
X349025Y308334D01*
X345051Y306688D01*
X340749Y306688D01*
X336775Y308334D01*
X333734Y311375D01*
X332088Y315349D01*
X332088Y315417D01*
X332085Y315437D01*
X332087Y315456D01*
X332065Y315558D01*
X332048Y315660D01*
X332039Y315677D01*
X332034Y315697D01*
X331981Y315786D01*
X331933Y315877D01*
X331919Y315891D01*
X331908Y315908D01*
X331830Y315975D01*
X331755Y316047D01*
X331737Y316055D01*
X331721Y316068D01*
X331625Y316107D01*
X331532Y316150D01*
X331512Y316152D01*
X331493Y316160D01*
X331327Y316178D01*
X314949Y316178D01*
X314929Y316175D01*
X314910Y316177D01*
X314808Y316155D01*
X314706Y316139D01*
X314689Y316129D01*
X314669Y316125D01*
X314580Y316072D01*
X314489Y316023D01*
X314475Y316009D01*
X314458Y315999D01*
X314391Y315920D01*
X314319Y315845D01*
X314311Y315827D01*
X314298Y315812D01*
X314259Y315716D01*
X314216Y315622D01*
X314214Y315602D01*
X314206Y315584D01*
X314188Y315417D01*
X314188Y314902D01*
X312848Y313562D01*
X296752Y313562D01*
X295412Y314902D01*
X295412Y327108D01*
X296752Y328448D01*
X312848Y328448D01*
X314188Y327108D01*
X314188Y326593D01*
X314191Y326573D01*
X314189Y326554D01*
X314211Y326452D01*
X314227Y326350D01*
X314237Y326333D01*
X314241Y326313D01*
X314294Y326224D01*
X314343Y326133D01*
X314357Y326119D01*
X314367Y326102D01*
X314446Y326035D01*
X314521Y325963D01*
X314539Y325955D01*
X314554Y325942D01*
X314650Y325903D01*
X314744Y325860D01*
X314764Y325858D01*
X314782Y325850D01*
X314949Y325832D01*
X335626Y325832D01*
X335716Y325846D01*
X335807Y325854D01*
X335836Y325866D01*
X335868Y325871D01*
X335949Y325914D01*
X336033Y325950D01*
X336065Y325976D01*
X336086Y325987D01*
X336108Y326010D01*
X336164Y326055D01*
X336775Y326666D01*
X340749Y328312D01*
X345051Y328312D01*
X349025Y326666D01*
X352066Y323625D01*
X352409Y322797D01*
X352471Y322697D01*
X352531Y322597D01*
X352535Y322593D01*
X352539Y322588D01*
X352628Y322513D01*
X352718Y322437D01*
X352723Y322435D01*
X352728Y322431D01*
X352836Y322389D01*
X352946Y322345D01*
X352953Y322344D01*
X352958Y322343D01*
X352976Y322342D01*
X353112Y322327D01*
X361504Y322327D01*
X362174Y321657D01*
X362232Y321615D01*
X362284Y321566D01*
X362331Y321544D01*
X362373Y321514D01*
X362442Y321493D01*
X362507Y321462D01*
X362559Y321457D01*
X362609Y321441D01*
X362680Y321443D01*
X362751Y321435D01*
X362802Y321446D01*
X362854Y321448D01*
X362922Y321472D01*
X362992Y321488D01*
X363037Y321514D01*
X363085Y321532D01*
X363141Y321577D01*
X363203Y321614D01*
X363237Y321653D01*
X363277Y321686D01*
X363316Y321746D01*
X363363Y321801D01*
X363382Y321849D01*
X363410Y321893D01*
X363428Y321962D01*
X363455Y322029D01*
X363463Y322100D01*
X363471Y322131D01*
X363469Y322155D01*
X363473Y322196D01*
X363473Y327885D01*
X363459Y327975D01*
X363451Y328066D01*
X363439Y328096D01*
X363434Y328128D01*
X363391Y328209D01*
X363355Y328293D01*
X363329Y328325D01*
X363318Y328345D01*
X363295Y328368D01*
X363250Y328424D01*
X341124Y350550D01*
X341050Y350603D01*
X340980Y350663D01*
X340950Y350675D01*
X340924Y350694D01*
X340837Y350721D01*
X340752Y350755D01*
X340711Y350759D01*
X340689Y350766D01*
X340657Y350765D01*
X340585Y350773D01*
X234188Y350773D01*
X234168Y350770D01*
X234149Y350772D01*
X234047Y350750D01*
X233945Y350734D01*
X233928Y350724D01*
X233908Y350720D01*
X233819Y350667D01*
X233728Y350618D01*
X233714Y350604D01*
X233697Y350594D01*
X233630Y350515D01*
X233558Y350440D01*
X233550Y350422D01*
X233537Y350407D01*
X233498Y350311D01*
X233455Y350217D01*
X233453Y350197D01*
X233445Y350179D01*
X233427Y350012D01*
X233427Y347599D01*
X233430Y347579D01*
X233428Y347560D01*
X233450Y347458D01*
X233466Y347356D01*
X233476Y347339D01*
X233480Y347319D01*
X233533Y347230D01*
X233582Y347139D01*
X233596Y347125D01*
X233606Y347108D01*
X233685Y347041D01*
X233760Y346969D01*
X233778Y346961D01*
X233793Y346948D01*
X233889Y346909D01*
X233983Y346866D01*
X234003Y346864D01*
X234021Y346856D01*
X234188Y346838D01*
X236648Y346838D01*
X237988Y345498D01*
X237988Y333292D01*
X236648Y331952D01*
X220552Y331952D01*
X219212Y333292D01*
X219212Y345498D01*
X220552Y346838D01*
X223012Y346838D01*
X223032Y346841D01*
X223051Y346839D01*
X223153Y346861D01*
X223255Y346877D01*
X223272Y346887D01*
X223292Y346891D01*
X223381Y346944D01*
X223472Y346993D01*
X223486Y347007D01*
X223503Y347017D01*
X223570Y347096D01*
X223642Y347171D01*
X223650Y347189D01*
X223663Y347204D01*
X223702Y347300D01*
X223745Y347394D01*
X223747Y347414D01*
X223755Y347432D01*
X223773Y347599D01*
X223773Y350012D01*
X223770Y350032D01*
X223772Y350051D01*
X223750Y350153D01*
X223734Y350255D01*
X223724Y350272D01*
X223720Y350292D01*
X223667Y350381D01*
X223618Y350472D01*
X223604Y350486D01*
X223594Y350503D01*
X223515Y350570D01*
X223440Y350642D01*
X223422Y350650D01*
X223407Y350663D01*
X223311Y350702D01*
X223217Y350745D01*
X223197Y350747D01*
X223179Y350755D01*
X223012Y350773D01*
X218215Y350773D01*
X218125Y350759D01*
X218034Y350751D01*
X218004Y350739D01*
X217972Y350734D01*
X217891Y350691D01*
X217807Y350655D01*
X217775Y350629D01*
X217755Y350618D01*
X217732Y350595D01*
X217676Y350550D01*
X175230Y308104D01*
X175177Y308030D01*
X175117Y307960D01*
X175105Y307930D01*
X175086Y307904D01*
X175059Y307817D01*
X175025Y307732D01*
X175021Y307691D01*
X175014Y307669D01*
X175015Y307637D01*
X175007Y307565D01*
X175007Y295209D01*
X173499Y291568D01*
X170712Y288781D01*
X167071Y287273D01*
X163129Y287273D01*
X159488Y288781D01*
X156701Y291568D01*
X155193Y295209D01*
X155193Y314391D01*
X156701Y318032D01*
X159488Y320819D01*
X163129Y322327D01*
X167071Y322327D01*
X170712Y320819D01*
X171964Y319566D01*
X171980Y319555D01*
X171992Y319539D01*
X172080Y319483D01*
X172164Y319423D01*
X172183Y319417D01*
X172199Y319406D01*
X172300Y319381D01*
X172399Y319351D01*
X172419Y319351D01*
X172438Y319346D01*
X172541Y319354D01*
X172644Y319357D01*
X172663Y319364D01*
X172683Y319365D01*
X172778Y319406D01*
X172876Y319441D01*
X172891Y319454D01*
X172909Y319462D01*
X173040Y319566D01*
X213901Y360427D01*
X344899Y360427D01*
X373127Y332199D01*
X373127Y321437D01*
X373141Y321347D01*
X373149Y321256D01*
X373161Y321226D01*
X373166Y321194D01*
X373209Y321113D01*
X373245Y321029D01*
X373271Y320997D01*
X373282Y320977D01*
X373305Y320954D01*
X373350Y320898D01*
X410498Y283750D01*
X410572Y283697D01*
X410642Y283637D01*
X410672Y283625D01*
X410698Y283606D01*
X410785Y283579D01*
X410870Y283545D01*
X410911Y283541D01*
X410933Y283534D01*
X410965Y283535D01*
X411037Y283527D01*
X418338Y283527D01*
X418358Y283530D01*
X418377Y283528D01*
X418479Y283550D01*
X418581Y283566D01*
X418598Y283576D01*
X418618Y283580D01*
X418707Y283633D01*
X418798Y283682D01*
X418812Y283696D01*
X418829Y283706D01*
X418896Y283785D01*
X418968Y283860D01*
X418976Y283878D01*
X418989Y283893D01*
X419028Y283989D01*
X419071Y284083D01*
X419073Y284103D01*
X419081Y284121D01*
X419099Y284288D01*
X419099Y290126D01*
X419135Y290162D01*
X419147Y290178D01*
X419163Y290190D01*
X419219Y290278D01*
X419279Y290361D01*
X419285Y290381D01*
X419296Y290397D01*
X419321Y290498D01*
X419351Y290597D01*
X419351Y290617D01*
X419356Y290636D01*
X419348Y290739D01*
X419345Y290842D01*
X419338Y290861D01*
X419337Y290881D01*
X419296Y290976D01*
X419261Y291073D01*
X419248Y291089D01*
X419240Y291107D01*
X419135Y291238D01*
X419099Y291274D01*
X419099Y298126D01*
X419992Y299019D01*
X433956Y299019D01*
X434849Y298126D01*
X434849Y291274D01*
X434813Y291238D01*
X434801Y291222D01*
X434785Y291210D01*
X434729Y291123D01*
X434669Y291039D01*
X434663Y291020D01*
X434652Y291003D01*
X434627Y290902D01*
X434597Y290804D01*
X434597Y290784D01*
X434592Y290764D01*
X434600Y290661D01*
X434603Y290558D01*
X434610Y290539D01*
X434611Y290519D01*
X434652Y290424D01*
X434687Y290327D01*
X434700Y290311D01*
X434708Y290293D01*
X434813Y290162D01*
X434849Y290126D01*
X434849Y283519D01*
X434863Y283428D01*
X434871Y283338D01*
X434883Y283308D01*
X434888Y283276D01*
X434931Y283195D01*
X434967Y283111D01*
X434993Y283079D01*
X435004Y283058D01*
X435027Y283036D01*
X435072Y282980D01*
X435611Y282441D01*
X435611Y250959D01*
X435072Y250420D01*
X435019Y250346D01*
X434959Y250276D01*
X434947Y250246D01*
X434928Y250220D01*
X434901Y250133D01*
X434867Y250048D01*
X434863Y250007D01*
X434856Y249985D01*
X434857Y249953D01*
X434849Y249881D01*
X434849Y243274D01*
X434813Y243238D01*
X434801Y243222D01*
X434785Y243210D01*
X434729Y243122D01*
X434669Y243039D01*
X434663Y243020D01*
X434652Y243003D01*
X434627Y242902D01*
X434597Y242804D01*
X434597Y242784D01*
X434592Y242764D01*
X434600Y242661D01*
X434603Y242558D01*
X434610Y242539D01*
X434611Y242519D01*
X434652Y242424D01*
X434687Y242327D01*
X434700Y242311D01*
X434708Y242293D01*
X434813Y242162D01*
X434849Y242126D01*
X434849Y235274D01*
X433956Y234381D01*
X419992Y234381D01*
X419961Y234412D01*
X419887Y234465D01*
X419818Y234525D01*
X419788Y234537D01*
X419762Y234556D01*
X419675Y234583D01*
X419590Y234617D01*
X419549Y234621D01*
X419527Y234628D01*
X419494Y234627D01*
X419423Y234635D01*
X405799Y234635D01*
X405709Y234621D01*
X405618Y234613D01*
X405588Y234601D01*
X405556Y234596D01*
X405476Y234553D01*
X405392Y234517D01*
X405360Y234491D01*
X405339Y234480D01*
X405317Y234457D01*
X405261Y234412D01*
X382988Y212139D01*
X382935Y212065D01*
X382875Y211996D01*
X382863Y211966D01*
X382844Y211940D01*
X382817Y211853D01*
X382783Y211768D01*
X382779Y211727D01*
X382772Y211704D01*
X382773Y211672D01*
X382765Y211601D01*
X382765Y166107D01*
X382779Y166017D01*
X382787Y165926D01*
X382799Y165896D01*
X382804Y165864D01*
X382847Y165783D01*
X382883Y165700D01*
X382909Y165667D01*
X382920Y165647D01*
X382943Y165625D01*
X382988Y165569D01*
X383162Y165395D01*
X383178Y165383D01*
X383190Y165367D01*
X383278Y165311D01*
X383361Y165251D01*
X383380Y165245D01*
X383397Y165234D01*
X383498Y165209D01*
X383597Y165179D01*
X383616Y165179D01*
X383636Y165174D01*
X383739Y165182D01*
X383842Y165185D01*
X383861Y165192D01*
X383881Y165193D01*
X383976Y165234D01*
X384073Y165269D01*
X384089Y165282D01*
X384107Y165290D01*
X384238Y165395D01*
X384412Y165569D01*
X384465Y165643D01*
X384525Y165712D01*
X384537Y165742D01*
X384556Y165768D01*
X384583Y165855D01*
X384617Y165940D01*
X384621Y165981D01*
X384628Y166003D01*
X384627Y166036D01*
X384635Y166107D01*
X384635Y174484D01*
X417416Y207265D01*
X429801Y207265D01*
X429891Y207279D01*
X429982Y207287D01*
X430012Y207299D01*
X430044Y207304D01*
X430124Y207347D01*
X430208Y207383D01*
X430240Y207409D01*
X430261Y207420D01*
X430283Y207443D01*
X430339Y207488D01*
X437612Y214761D01*
X437665Y214835D01*
X437725Y214904D01*
X437737Y214934D01*
X437756Y214960D01*
X437783Y215047D01*
X437817Y215132D01*
X437821Y215173D01*
X437828Y215196D01*
X437827Y215228D01*
X437835Y215299D01*
X437835Y216223D01*
X437821Y216313D01*
X437813Y216404D01*
X437801Y216434D01*
X437796Y216466D01*
X437753Y216547D01*
X437717Y216630D01*
X437691Y216663D01*
X437680Y216683D01*
X437657Y216705D01*
X437612Y216761D01*
X437581Y216792D01*
X437581Y230756D01*
X438474Y231649D01*
X445082Y231649D01*
X445172Y231663D01*
X445263Y231671D01*
X445292Y231683D01*
X445324Y231688D01*
X445405Y231731D01*
X445489Y231767D01*
X445521Y231793D01*
X445542Y231804D01*
X445564Y231827D01*
X445620Y231872D01*
X446159Y232411D01*
X453641Y232411D01*
X454180Y231872D01*
X454254Y231819D01*
X454324Y231759D01*
X454354Y231747D01*
X454380Y231728D01*
X454467Y231701D01*
X454552Y231667D01*
X454593Y231663D01*
X454615Y231656D01*
X454647Y231657D01*
X454718Y231649D01*
X461326Y231649D01*
X461362Y231613D01*
X461378Y231601D01*
X461390Y231585D01*
X461477Y231529D01*
X461561Y231469D01*
X461580Y231463D01*
X461597Y231452D01*
X461698Y231427D01*
X461796Y231397D01*
X461816Y231397D01*
X461836Y231392D01*
X461939Y231400D01*
X462042Y231403D01*
X462061Y231410D01*
X462081Y231411D01*
X462176Y231452D01*
X462273Y231487D01*
X462289Y231500D01*
X462307Y231508D01*
X462438Y231613D01*
X462474Y231649D01*
X468722Y231649D01*
X468812Y231663D01*
X468903Y231671D01*
X468933Y231683D01*
X468965Y231688D01*
X469046Y231731D01*
X469130Y231767D01*
X469162Y231793D01*
X469182Y231804D01*
X469205Y231827D01*
X469261Y231872D01*
X469546Y232157D01*
X470125Y232492D01*
X470772Y232665D01*
X472504Y232665D01*
X472504Y224409D01*
X472507Y224390D01*
X472505Y224370D01*
X472527Y224268D01*
X472543Y224166D01*
X472553Y224149D01*
X472557Y224129D01*
X472610Y224040D01*
X472659Y223949D01*
X472673Y223935D01*
X472683Y223918D01*
X472762Y223851D01*
X472837Y223780D01*
X472854Y223772D01*
X472805Y223745D01*
X472791Y223731D01*
X472774Y223721D01*
X472707Y223642D01*
X472635Y223567D01*
X472627Y223549D01*
X472614Y223534D01*
X472575Y223437D01*
X472532Y223344D01*
X472530Y223324D01*
X472522Y223306D01*
X472504Y223139D01*
X472504Y214883D01*
X470772Y214883D01*
X470125Y215056D01*
X469546Y215391D01*
X469261Y215676D01*
X469187Y215729D01*
X469117Y215789D01*
X469087Y215801D01*
X469061Y215820D01*
X468974Y215847D01*
X468889Y215881D01*
X468848Y215885D01*
X468826Y215892D01*
X468794Y215891D01*
X468722Y215899D01*
X462474Y215899D01*
X462438Y215935D01*
X462422Y215947D01*
X462410Y215963D01*
X462322Y216019D01*
X462239Y216079D01*
X462219Y216085D01*
X462203Y216096D01*
X462102Y216121D01*
X462003Y216151D01*
X461983Y216151D01*
X461964Y216156D01*
X461861Y216148D01*
X461758Y216145D01*
X461739Y216138D01*
X461719Y216137D01*
X461624Y216096D01*
X461527Y216061D01*
X461511Y216048D01*
X461493Y216040D01*
X461362Y215935D01*
X461326Y215899D01*
X454718Y215899D01*
X454628Y215885D01*
X454537Y215877D01*
X454508Y215865D01*
X454476Y215860D01*
X454395Y215817D01*
X454311Y215781D01*
X454279Y215755D01*
X454258Y215744D01*
X454236Y215721D01*
X454180Y215676D01*
X453641Y215137D01*
X446726Y215137D01*
X446706Y215134D01*
X446687Y215136D01*
X446585Y215114D01*
X446483Y215098D01*
X446466Y215088D01*
X446446Y215084D01*
X446357Y215031D01*
X446266Y214982D01*
X446252Y214968D01*
X446235Y214958D01*
X446168Y214879D01*
X446096Y214804D01*
X446088Y214786D01*
X446075Y214771D01*
X446036Y214675D01*
X445993Y214581D01*
X445991Y214561D01*
X445983Y214543D01*
X445965Y214376D01*
X445965Y211616D01*
X433484Y199135D01*
X421099Y199135D01*
X421009Y199121D01*
X420918Y199113D01*
X420888Y199101D01*
X420856Y199096D01*
X420776Y199053D01*
X420692Y199017D01*
X420659Y198991D01*
X420639Y198980D01*
X420617Y198957D01*
X420561Y198912D01*
X417513Y195864D01*
X417471Y195806D01*
X417421Y195754D01*
X417399Y195707D01*
X417369Y195665D01*
X417348Y195596D01*
X417318Y195531D01*
X417312Y195479D01*
X417297Y195429D01*
X417299Y195358D01*
X417291Y195287D01*
X417302Y195236D01*
X417303Y195184D01*
X417328Y195116D01*
X417343Y195046D01*
X417370Y195001D01*
X417388Y194953D01*
X417432Y194897D01*
X417469Y194835D01*
X417509Y194801D01*
X417541Y194761D01*
X417602Y194722D01*
X417656Y194675D01*
X417704Y194656D01*
X417748Y194628D01*
X417818Y194610D01*
X417884Y194583D01*
X417956Y194575D01*
X417987Y194567D01*
X418010Y194569D01*
X418051Y194565D01*
X544101Y194565D01*
X544191Y194579D01*
X544282Y194587D01*
X544312Y194599D01*
X544344Y194604D01*
X544424Y194647D01*
X544508Y194683D01*
X544540Y194709D01*
X544561Y194720D01*
X544583Y194743D01*
X544639Y194788D01*
X550487Y200635D01*
X550555Y200730D01*
X550625Y200824D01*
X550627Y200830D01*
X550630Y200835D01*
X550664Y200946D01*
X550701Y201058D01*
X550701Y201064D01*
X550703Y201070D01*
X550699Y201187D01*
X550698Y201304D01*
X550696Y201311D01*
X550696Y201316D01*
X550690Y201333D01*
X550652Y201465D01*
X550608Y201570D01*
X550608Y204830D01*
X551855Y207841D01*
X554159Y210145D01*
X557170Y211392D01*
X560430Y211392D01*
X563441Y210145D01*
X565745Y207841D01*
X566992Y204830D01*
X566992Y201570D01*
X565745Y198559D01*
X563441Y196255D01*
X560430Y195008D01*
X557170Y195008D01*
X557065Y195052D01*
X556951Y195078D01*
X556837Y195107D01*
X556831Y195106D01*
X556825Y195108D01*
X556709Y195097D01*
X556592Y195088D01*
X556587Y195085D01*
X556580Y195085D01*
X556473Y195037D01*
X556366Y194991D01*
X556360Y194987D01*
X556356Y194985D01*
X556342Y194972D01*
X556235Y194887D01*
X547784Y186435D01*
X463066Y186435D01*
X462995Y186424D01*
X462923Y186422D01*
X462874Y186404D01*
X462823Y186396D01*
X462760Y186362D01*
X462692Y186337D01*
X462652Y186305D01*
X462606Y186280D01*
X462556Y186228D01*
X462500Y186184D01*
X462472Y186140D01*
X462436Y186102D01*
X462406Y186037D01*
X462367Y185977D01*
X462355Y185926D01*
X462333Y185879D01*
X462325Y185808D01*
X462307Y185738D01*
X462311Y185686D01*
X462306Y185635D01*
X462321Y185564D01*
X462326Y185493D01*
X462347Y185445D01*
X462358Y185394D01*
X462395Y185333D01*
X462423Y185267D01*
X462467Y185211D01*
X462484Y185183D01*
X462502Y185168D01*
X462527Y185136D01*
X464791Y182872D01*
X466154Y179581D01*
X466154Y176019D01*
X464791Y172728D01*
X462272Y170209D01*
X458981Y168846D01*
X455419Y168846D01*
X452128Y170209D01*
X449586Y172750D01*
X449513Y172803D01*
X449443Y172863D01*
X449413Y172875D01*
X449387Y172894D01*
X449300Y172921D01*
X449215Y172955D01*
X449174Y172959D01*
X449152Y172966D01*
X449119Y172965D01*
X449048Y172973D01*
X421415Y172973D01*
X421325Y172959D01*
X421234Y172951D01*
X421204Y172939D01*
X421172Y172934D01*
X421091Y172891D01*
X421007Y172855D01*
X420975Y172829D01*
X420955Y172818D01*
X420932Y172795D01*
X420876Y172750D01*
X416666Y168540D01*
X416624Y168482D01*
X416575Y168430D01*
X416553Y168383D01*
X416523Y168341D01*
X416502Y168272D01*
X416471Y168207D01*
X416466Y168155D01*
X416450Y168105D01*
X416452Y168034D01*
X416444Y167963D01*
X416455Y167912D01*
X416457Y167860D01*
X416481Y167792D01*
X416497Y167722D01*
X416523Y167677D01*
X416541Y167629D01*
X416586Y167573D01*
X416623Y167511D01*
X416662Y167477D01*
X416695Y167437D01*
X416755Y167398D01*
X416810Y167351D01*
X416858Y167332D01*
X416902Y167304D01*
X416971Y167286D01*
X417038Y167259D01*
X417109Y167251D01*
X417140Y167243D01*
X417164Y167245D01*
X417201Y167241D01*
X417201Y157688D01*
X417204Y157669D01*
X417202Y157649D01*
X417224Y157547D01*
X417240Y157445D01*
X417250Y157428D01*
X417254Y157408D01*
X417307Y157319D01*
X417356Y157228D01*
X417370Y157214D01*
X417380Y157197D01*
X417459Y157130D01*
X417534Y157059D01*
X417552Y157050D01*
X417567Y157037D01*
X417663Y156999D01*
X417757Y156955D01*
X417777Y156953D01*
X417795Y156946D01*
X417719Y156933D01*
X417702Y156924D01*
X417682Y156920D01*
X417593Y156867D01*
X417502Y156818D01*
X417488Y156804D01*
X417471Y156794D01*
X417404Y156715D01*
X417332Y156640D01*
X417324Y156622D01*
X417311Y156607D01*
X417272Y156510D01*
X417229Y156417D01*
X417227Y156397D01*
X417219Y156379D01*
X417201Y156212D01*
X417201Y146659D01*
X415366Y146659D01*
G37*
%LPD*%
%LPC*%
G36*
X45381Y164718D02*
X45381Y164718D01*
X37718Y172381D01*
X37718Y183219D01*
X45381Y190882D01*
X49556Y190882D01*
X49646Y190896D01*
X49737Y190904D01*
X49767Y190916D01*
X49799Y190921D01*
X49880Y190964D01*
X49963Y191000D01*
X49996Y191026D01*
X50016Y191037D01*
X50038Y191060D01*
X50094Y191105D01*
X129570Y270581D01*
X129623Y270654D01*
X129683Y270724D01*
X129695Y270754D01*
X129714Y270780D01*
X129741Y270867D01*
X129775Y270952D01*
X129779Y270993D01*
X129786Y271015D01*
X129785Y271048D01*
X129793Y271119D01*
X129793Y314391D01*
X131301Y318032D01*
X134088Y320819D01*
X137729Y322327D01*
X141671Y322327D01*
X145312Y320819D01*
X148099Y318032D01*
X149607Y314391D01*
X149607Y264729D01*
X148099Y261088D01*
X64105Y177094D01*
X64052Y177021D01*
X63992Y176951D01*
X63980Y176921D01*
X63961Y176895D01*
X63934Y176808D01*
X63900Y176723D01*
X63896Y176682D01*
X63889Y176660D01*
X63890Y176627D01*
X63882Y176556D01*
X63882Y172381D01*
X56219Y164718D01*
X45381Y164718D01*
G37*
%LPD*%
%LPC*%
G36*
X550223Y115823D02*
X550223Y115823D01*
X550223Y167600D01*
X612365Y167600D01*
X613012Y167427D01*
X613591Y167092D01*
X614064Y166619D01*
X614399Y166040D01*
X614572Y165393D01*
X614572Y115823D01*
X550223Y115823D01*
G37*
%LPD*%
%LPC*%
G36*
X482828Y115823D02*
X482828Y115823D01*
X482828Y165393D01*
X483001Y166040D01*
X483336Y166619D01*
X483809Y167092D01*
X484388Y167427D01*
X485035Y167600D01*
X547177Y167600D01*
X547177Y115823D01*
X482828Y115823D01*
G37*
%LPD*%
%LPC*%
G36*
X550223Y61000D02*
X550223Y61000D01*
X550223Y112777D01*
X614572Y112777D01*
X614572Y63207D01*
X614399Y62560D01*
X614064Y61981D01*
X613591Y61508D01*
X613012Y61173D01*
X612365Y61000D01*
X550223Y61000D01*
G37*
%LPD*%
%LPC*%
G36*
X485035Y61000D02*
X485035Y61000D01*
X484388Y61173D01*
X483809Y61508D01*
X483336Y61981D01*
X483001Y62560D01*
X482828Y63207D01*
X482828Y112777D01*
X547177Y112777D01*
X547177Y61000D01*
X485035Y61000D01*
G37*
%LPD*%
%LPC*%
G36*
X340749Y230488D02*
X340749Y230488D01*
X336775Y232134D01*
X333734Y235175D01*
X333391Y236003D01*
X333329Y236103D01*
X333269Y236203D01*
X333265Y236207D01*
X333261Y236212D01*
X333172Y236287D01*
X333082Y236363D01*
X333077Y236365D01*
X333072Y236369D01*
X332964Y236411D01*
X332854Y236455D01*
X332847Y236456D01*
X332842Y236457D01*
X332824Y236458D01*
X332688Y236473D01*
X315501Y236473D01*
X249173Y302801D01*
X249173Y332199D01*
X261196Y344222D01*
X269251Y344222D01*
X269271Y344225D01*
X269290Y344223D01*
X269392Y344245D01*
X269494Y344261D01*
X269511Y344271D01*
X269531Y344275D01*
X269620Y344328D01*
X269711Y344377D01*
X269725Y344391D01*
X269742Y344401D01*
X269809Y344480D01*
X269881Y344555D01*
X269889Y344573D01*
X269902Y344588D01*
X269941Y344684D01*
X269984Y344778D01*
X269986Y344798D01*
X269994Y344816D01*
X270012Y344983D01*
X270012Y345498D01*
X271352Y346838D01*
X287448Y346838D01*
X288788Y345498D01*
X288788Y344983D01*
X288791Y344963D01*
X288789Y344944D01*
X288811Y344842D01*
X288827Y344740D01*
X288837Y344723D01*
X288841Y344703D01*
X288894Y344614D01*
X288943Y344523D01*
X288957Y344509D01*
X288967Y344492D01*
X289046Y344425D01*
X289121Y344353D01*
X289139Y344345D01*
X289154Y344332D01*
X289250Y344293D01*
X289344Y344250D01*
X289364Y344248D01*
X289382Y344240D01*
X289549Y344222D01*
X294651Y344222D01*
X294671Y344225D01*
X294690Y344223D01*
X294792Y344245D01*
X294894Y344261D01*
X294911Y344271D01*
X294931Y344275D01*
X295020Y344328D01*
X295111Y344377D01*
X295125Y344391D01*
X295142Y344401D01*
X295209Y344480D01*
X295281Y344555D01*
X295289Y344573D01*
X295302Y344588D01*
X295341Y344684D01*
X295384Y344778D01*
X295386Y344798D01*
X295394Y344816D01*
X295412Y344983D01*
X295412Y345498D01*
X296752Y346838D01*
X312848Y346838D01*
X314188Y345498D01*
X314188Y333292D01*
X312848Y331952D01*
X296752Y331952D01*
X295412Y333292D01*
X295412Y333807D01*
X295409Y333827D01*
X295411Y333846D01*
X295389Y333948D01*
X295373Y334050D01*
X295363Y334067D01*
X295359Y334087D01*
X295306Y334176D01*
X295257Y334267D01*
X295243Y334281D01*
X295233Y334298D01*
X295154Y334365D01*
X295079Y334437D01*
X295061Y334445D01*
X295046Y334458D01*
X294950Y334497D01*
X294856Y334540D01*
X294836Y334542D01*
X294818Y334550D01*
X294651Y334568D01*
X289549Y334568D01*
X289529Y334565D01*
X289510Y334567D01*
X289408Y334545D01*
X289306Y334529D01*
X289289Y334519D01*
X289269Y334515D01*
X289180Y334462D01*
X289089Y334413D01*
X289075Y334399D01*
X289058Y334389D01*
X288991Y334310D01*
X288919Y334235D01*
X288911Y334217D01*
X288898Y334202D01*
X288859Y334106D01*
X288816Y334012D01*
X288814Y333992D01*
X288806Y333974D01*
X288788Y333807D01*
X288788Y333292D01*
X287448Y331952D01*
X271352Y331952D01*
X270012Y333292D01*
X270012Y333807D01*
X270009Y333827D01*
X270011Y333846D01*
X269989Y333948D01*
X269973Y334050D01*
X269963Y334067D01*
X269959Y334087D01*
X269906Y334176D01*
X269857Y334267D01*
X269843Y334281D01*
X269833Y334298D01*
X269754Y334365D01*
X269679Y334437D01*
X269661Y334445D01*
X269646Y334458D01*
X269550Y334497D01*
X269456Y334540D01*
X269436Y334542D01*
X269418Y334550D01*
X269251Y334568D01*
X265510Y334568D01*
X265420Y334554D01*
X265329Y334546D01*
X265299Y334534D01*
X265267Y334529D01*
X265186Y334486D01*
X265102Y334450D01*
X265070Y334424D01*
X265050Y334413D01*
X265027Y334390D01*
X264971Y334345D01*
X259050Y328424D01*
X258997Y328350D01*
X258937Y328280D01*
X258925Y328250D01*
X258906Y328224D01*
X258879Y328137D01*
X258845Y328052D01*
X258841Y328011D01*
X258834Y327989D01*
X258835Y327957D01*
X258827Y327885D01*
X258827Y307115D01*
X258841Y307025D01*
X258849Y306934D01*
X258861Y306904D01*
X258866Y306872D01*
X258909Y306791D01*
X258945Y306707D01*
X258971Y306675D01*
X258982Y306655D01*
X259005Y306632D01*
X259050Y306576D01*
X319276Y246350D01*
X319350Y246297D01*
X319420Y246237D01*
X319450Y246225D01*
X319476Y246206D01*
X319563Y246179D01*
X319648Y246145D01*
X319689Y246141D01*
X319711Y246134D01*
X319743Y246135D01*
X319815Y246127D01*
X332688Y246127D01*
X332802Y246146D01*
X332919Y246163D01*
X332924Y246165D01*
X332930Y246166D01*
X333033Y246221D01*
X333138Y246274D01*
X333142Y246279D01*
X333148Y246282D01*
X333228Y246366D01*
X333310Y246450D01*
X333314Y246456D01*
X333317Y246460D01*
X333325Y246477D01*
X333391Y246597D01*
X333734Y247425D01*
X336775Y250466D01*
X340749Y252112D01*
X345051Y252112D01*
X349025Y250466D01*
X352066Y247425D01*
X353712Y243451D01*
X353712Y239149D01*
X352066Y235175D01*
X349025Y232134D01*
X345051Y230488D01*
X340749Y230488D01*
G37*
%LPD*%
%LPC*%
G36*
X475296Y214883D02*
X475296Y214883D01*
X475296Y223139D01*
X475293Y223158D01*
X475295Y223178D01*
X475273Y223280D01*
X475257Y223382D01*
X475247Y223399D01*
X475243Y223419D01*
X475190Y223508D01*
X475141Y223599D01*
X475127Y223613D01*
X475117Y223630D01*
X475038Y223697D01*
X474963Y223768D01*
X474945Y223776D01*
X474995Y223803D01*
X475009Y223817D01*
X475026Y223827D01*
X475093Y223906D01*
X475165Y223981D01*
X475173Y223999D01*
X475186Y224014D01*
X475225Y224111D01*
X475268Y224204D01*
X475270Y224224D01*
X475278Y224242D01*
X475296Y224409D01*
X475296Y232665D01*
X477028Y232665D01*
X477675Y232492D01*
X478254Y232157D01*
X478539Y231872D01*
X478613Y231819D01*
X478683Y231759D01*
X478713Y231747D01*
X478739Y231728D01*
X478826Y231701D01*
X478911Y231667D01*
X478952Y231663D01*
X478974Y231656D01*
X479006Y231657D01*
X479078Y231649D01*
X485326Y231649D01*
X485362Y231613D01*
X485378Y231601D01*
X485390Y231585D01*
X485477Y231529D01*
X485561Y231469D01*
X485580Y231463D01*
X485597Y231452D01*
X485698Y231427D01*
X485796Y231397D01*
X485816Y231397D01*
X485836Y231392D01*
X485939Y231400D01*
X486042Y231403D01*
X486061Y231410D01*
X486081Y231411D01*
X486176Y231452D01*
X486273Y231487D01*
X486289Y231500D01*
X486307Y231508D01*
X486438Y231613D01*
X486474Y231649D01*
X493326Y231649D01*
X493362Y231613D01*
X493378Y231601D01*
X493390Y231585D01*
X493477Y231529D01*
X493561Y231469D01*
X493580Y231463D01*
X493597Y231452D01*
X493698Y231427D01*
X493796Y231397D01*
X493816Y231397D01*
X493836Y231392D01*
X493939Y231400D01*
X494042Y231403D01*
X494061Y231410D01*
X494081Y231411D01*
X494176Y231452D01*
X494273Y231487D01*
X494289Y231500D01*
X494307Y231508D01*
X494438Y231613D01*
X494474Y231649D01*
X501326Y231649D01*
X502219Y230756D01*
X502219Y216792D01*
X501326Y215899D01*
X494474Y215899D01*
X494438Y215935D01*
X494422Y215947D01*
X494410Y215963D01*
X494322Y216019D01*
X494239Y216079D01*
X494219Y216085D01*
X494203Y216096D01*
X494102Y216121D01*
X494003Y216151D01*
X493983Y216151D01*
X493964Y216156D01*
X493861Y216148D01*
X493758Y216145D01*
X493739Y216138D01*
X493719Y216137D01*
X493624Y216096D01*
X493527Y216061D01*
X493511Y216048D01*
X493493Y216040D01*
X493362Y215935D01*
X493326Y215899D01*
X486474Y215899D01*
X486438Y215935D01*
X486422Y215947D01*
X486410Y215963D01*
X486322Y216019D01*
X486239Y216079D01*
X486219Y216085D01*
X486203Y216096D01*
X486102Y216121D01*
X486003Y216151D01*
X485983Y216151D01*
X485964Y216156D01*
X485861Y216148D01*
X485758Y216145D01*
X485739Y216138D01*
X485719Y216137D01*
X485624Y216096D01*
X485527Y216061D01*
X485511Y216048D01*
X485493Y216040D01*
X485362Y215935D01*
X485326Y215899D01*
X479078Y215899D01*
X478988Y215885D01*
X478897Y215877D01*
X478867Y215865D01*
X478835Y215860D01*
X478754Y215817D01*
X478670Y215781D01*
X478638Y215755D01*
X478618Y215744D01*
X478595Y215721D01*
X478539Y215676D01*
X478254Y215391D01*
X477675Y215056D01*
X477028Y214883D01*
X475296Y214883D01*
G37*
%LPD*%
%LPC*%
G36*
X349068Y121175D02*
X349068Y121175D01*
X348175Y122068D01*
X348175Y141332D01*
X349068Y142225D01*
X362332Y142225D01*
X363225Y141332D01*
X363225Y122068D01*
X362332Y121175D01*
X349068Y121175D01*
G37*
%LPD*%
%LPC*%
G36*
X425068Y121175D02*
X425068Y121175D01*
X424175Y122068D01*
X424175Y141332D01*
X425068Y142225D01*
X438332Y142225D01*
X439225Y141332D01*
X439225Y122068D01*
X438332Y121175D01*
X425068Y121175D01*
G37*
%LPD*%
%LPC*%
G36*
X483296Y300735D02*
X483296Y300735D01*
X483296Y308991D01*
X483293Y309010D01*
X483295Y309030D01*
X483273Y309132D01*
X483257Y309234D01*
X483247Y309251D01*
X483243Y309271D01*
X483190Y309360D01*
X483141Y309451D01*
X483127Y309465D01*
X483117Y309482D01*
X483038Y309549D01*
X482963Y309620D01*
X482945Y309628D01*
X482995Y309655D01*
X483009Y309669D01*
X483026Y309679D01*
X483093Y309758D01*
X483165Y309833D01*
X483173Y309851D01*
X483186Y309866D01*
X483225Y309963D01*
X483268Y310056D01*
X483270Y310076D01*
X483278Y310094D01*
X483296Y310261D01*
X483296Y318517D01*
X485028Y318517D01*
X485675Y318344D01*
X486254Y318009D01*
X486539Y317724D01*
X486613Y317671D01*
X486683Y317611D01*
X486713Y317599D01*
X486739Y317580D01*
X486826Y317553D01*
X486911Y317519D01*
X486952Y317515D01*
X486974Y317508D01*
X487006Y317509D01*
X487078Y317501D01*
X493326Y317501D01*
X493362Y317465D01*
X493378Y317453D01*
X493390Y317437D01*
X493478Y317381D01*
X493561Y317321D01*
X493581Y317315D01*
X493597Y317304D01*
X493698Y317279D01*
X493797Y317249D01*
X493817Y317249D01*
X493836Y317244D01*
X493939Y317252D01*
X494042Y317255D01*
X494061Y317262D01*
X494081Y317263D01*
X494176Y317304D01*
X494273Y317339D01*
X494289Y317352D01*
X494307Y317360D01*
X494438Y317465D01*
X494474Y317501D01*
X501326Y317501D01*
X502219Y316608D01*
X502219Y302644D01*
X501326Y301751D01*
X494474Y301751D01*
X494438Y301787D01*
X494422Y301799D01*
X494410Y301815D01*
X494323Y301871D01*
X494239Y301931D01*
X494220Y301937D01*
X494203Y301948D01*
X494102Y301973D01*
X494004Y302003D01*
X493984Y302003D01*
X493964Y302008D01*
X493861Y302000D01*
X493758Y301997D01*
X493739Y301990D01*
X493719Y301989D01*
X493624Y301948D01*
X493527Y301913D01*
X493511Y301900D01*
X493493Y301892D01*
X493362Y301787D01*
X493326Y301751D01*
X487078Y301751D01*
X486988Y301737D01*
X486897Y301729D01*
X486867Y301717D01*
X486835Y301712D01*
X486754Y301669D01*
X486670Y301633D01*
X486638Y301607D01*
X486618Y301596D01*
X486595Y301573D01*
X486539Y301528D01*
X486254Y301243D01*
X485675Y300908D01*
X485028Y300735D01*
X483296Y300735D01*
G37*
%LPD*%
%LPC*%
G36*
X680423Y149823D02*
X680423Y149823D01*
X680423Y155050D01*
X708765Y155050D01*
X709412Y154877D01*
X709991Y154542D01*
X710464Y154069D01*
X710799Y153490D01*
X710972Y152843D01*
X710972Y149823D01*
X680423Y149823D01*
G37*
%LPD*%
%LPC*%
G36*
X680423Y115823D02*
X680423Y115823D01*
X680423Y121050D01*
X708765Y121050D01*
X709412Y120877D01*
X709991Y120542D01*
X710464Y120069D01*
X710799Y119490D01*
X710972Y118843D01*
X710972Y115823D01*
X680423Y115823D01*
G37*
%LPD*%
%LPC*%
G36*
X646828Y149823D02*
X646828Y149823D01*
X646828Y152843D01*
X647001Y153490D01*
X647336Y154069D01*
X647809Y154542D01*
X648388Y154877D01*
X649035Y155050D01*
X677377Y155050D01*
X677377Y149823D01*
X646828Y149823D01*
G37*
%LPD*%
%LPC*%
G36*
X646828Y115823D02*
X646828Y115823D01*
X646828Y118843D01*
X647001Y119490D01*
X647336Y120069D01*
X647809Y120542D01*
X648388Y120877D01*
X649035Y121050D01*
X677377Y121050D01*
X677377Y115823D01*
X646828Y115823D01*
G37*
%LPD*%
%LPC*%
G36*
X680423Y141550D02*
X680423Y141550D01*
X680423Y146777D01*
X710972Y146777D01*
X710972Y143757D01*
X710799Y143110D01*
X710464Y142531D01*
X709991Y142058D01*
X709412Y141723D01*
X708765Y141550D01*
X680423Y141550D01*
G37*
%LPD*%
%LPC*%
G36*
X680423Y107550D02*
X680423Y107550D01*
X680423Y112777D01*
X710972Y112777D01*
X710972Y109757D01*
X710799Y109110D01*
X710464Y108531D01*
X709991Y108058D01*
X709412Y107723D01*
X708765Y107550D01*
X680423Y107550D01*
G37*
%LPD*%
%LPC*%
G36*
X649035Y107550D02*
X649035Y107550D01*
X648388Y107723D01*
X647809Y108058D01*
X647336Y108531D01*
X647001Y109110D01*
X646828Y109757D01*
X646828Y112777D01*
X677377Y112777D01*
X677377Y107550D01*
X649035Y107550D01*
G37*
%LPD*%
%LPC*%
G36*
X649035Y141550D02*
X649035Y141550D01*
X648388Y141723D01*
X647809Y142058D01*
X647336Y142531D01*
X647001Y143110D01*
X646828Y143757D01*
X646828Y146777D01*
X677377Y146777D01*
X677377Y141550D01*
X649035Y141550D01*
G37*
%LPD*%
%LPC*%
G36*
X115823Y306323D02*
X115823Y306323D01*
X115823Y322466D01*
X116679Y322331D01*
X118200Y321836D01*
X119625Y321110D01*
X120919Y320170D01*
X122050Y319039D01*
X122990Y317745D01*
X123716Y316320D01*
X124211Y314799D01*
X124461Y313220D01*
X124461Y306323D01*
X115823Y306323D01*
G37*
%LPD*%
%LPC*%
G36*
X115823Y303277D02*
X115823Y303277D01*
X124461Y303277D01*
X124461Y296380D01*
X124211Y294801D01*
X123716Y293280D01*
X122990Y291855D01*
X122050Y290561D01*
X120919Y289430D01*
X119625Y288490D01*
X118200Y287764D01*
X116679Y287269D01*
X115823Y287134D01*
X115823Y303277D01*
G37*
%LPD*%
%LPC*%
G36*
X104139Y306323D02*
X104139Y306323D01*
X104139Y313220D01*
X104389Y314799D01*
X104884Y316320D01*
X105610Y317745D01*
X106550Y319039D01*
X107681Y320170D01*
X108975Y321110D01*
X110400Y321836D01*
X111921Y322331D01*
X112777Y322466D01*
X112777Y306323D01*
X104139Y306323D01*
G37*
%LPD*%
%LPC*%
G36*
X111921Y287269D02*
X111921Y287269D01*
X110400Y287764D01*
X108975Y288490D01*
X107681Y289430D01*
X106550Y290561D01*
X105610Y291855D01*
X104884Y293280D01*
X104389Y294801D01*
X104139Y296380D01*
X104139Y303277D01*
X112777Y303277D01*
X112777Y287134D01*
X111921Y287269D01*
G37*
%LPD*%
%LPC*%
G36*
X357123Y103123D02*
X357123Y103123D01*
X357123Y114936D01*
X361124Y114936D01*
X368936Y107124D01*
X368936Y103123D01*
X357123Y103123D01*
G37*
%LPD*%
%LPC*%
G36*
X357123Y88264D02*
X357123Y88264D01*
X357123Y100077D01*
X368936Y100077D01*
X368936Y96076D01*
X361124Y88264D01*
X357123Y88264D01*
G37*
%LPD*%
%LPC*%
G36*
X342264Y103123D02*
X342264Y103123D01*
X342264Y107124D01*
X350076Y114936D01*
X354077Y114936D01*
X354077Y103123D01*
X342264Y103123D01*
G37*
%LPD*%
%LPC*%
G36*
X350076Y88264D02*
X350076Y88264D01*
X342264Y96076D01*
X342264Y100077D01*
X354077Y100077D01*
X354077Y88264D01*
X350076Y88264D01*
G37*
%LPD*%
%LPC*%
G36*
X872623Y77723D02*
X872623Y77723D01*
X872623Y89162D01*
X874154Y88920D01*
X876106Y88285D01*
X877935Y87353D01*
X879596Y86147D01*
X881047Y84696D01*
X882253Y83035D01*
X883185Y81206D01*
X883820Y79254D01*
X884062Y77723D01*
X872623Y77723D01*
G37*
%LPD*%
%LPC*%
G36*
X858138Y77723D02*
X858138Y77723D01*
X858380Y79254D01*
X859015Y81206D01*
X859947Y83035D01*
X861153Y84696D01*
X862604Y86147D01*
X864265Y87353D01*
X866094Y88285D01*
X868046Y88920D01*
X869577Y89162D01*
X869577Y77723D01*
X858138Y77723D01*
G37*
%LPD*%
%LPC*%
G36*
X872623Y74677D02*
X872623Y74677D01*
X884062Y74677D01*
X883820Y73146D01*
X883185Y71194D01*
X882253Y69365D01*
X881047Y67704D01*
X879596Y66253D01*
X877935Y65047D01*
X876106Y64115D01*
X874154Y63480D01*
X872623Y63238D01*
X872623Y74677D01*
G37*
%LPD*%
%LPC*%
G36*
X868046Y63480D02*
X868046Y63480D01*
X866094Y64115D01*
X864265Y65047D01*
X862604Y66253D01*
X861153Y67704D01*
X859947Y69365D01*
X859015Y71194D01*
X858380Y73146D01*
X858138Y74677D01*
X869577Y74677D01*
X869577Y63238D01*
X868046Y63480D01*
G37*
%LPD*%
%LPC*%
G36*
X725399Y195799D02*
X725399Y195799D01*
X725399Y205747D01*
X726602Y205557D01*
X728330Y204995D01*
X729949Y204171D01*
X731418Y203103D01*
X732703Y201818D01*
X733771Y200349D01*
X734595Y198730D01*
X735157Y197002D01*
X735347Y195799D01*
X725399Y195799D01*
G37*
%LPD*%
%LPC*%
G36*
X725399Y192801D02*
X725399Y192801D01*
X735347Y192801D01*
X735157Y191598D01*
X734595Y189870D01*
X733771Y188251D01*
X732703Y186782D01*
X731418Y185497D01*
X729949Y184429D01*
X728330Y183605D01*
X726602Y183043D01*
X725399Y182853D01*
X725399Y192801D01*
G37*
%LPD*%
%LPC*%
G36*
X712453Y195799D02*
X712453Y195799D01*
X712643Y197002D01*
X713205Y198730D01*
X714029Y200349D01*
X715097Y201818D01*
X716382Y203103D01*
X717851Y204171D01*
X719470Y204995D01*
X721198Y205557D01*
X722401Y205747D01*
X722401Y195799D01*
X712453Y195799D01*
G37*
%LPD*%
%LPC*%
G36*
X721198Y183043D02*
X721198Y183043D01*
X719470Y183605D01*
X717851Y184429D01*
X716382Y185497D01*
X715097Y186782D01*
X714029Y188251D01*
X713205Y189870D01*
X712643Y191598D01*
X712453Y192801D01*
X722401Y192801D01*
X722401Y182853D01*
X721198Y183043D01*
G37*
%LPD*%
%LPC*%
G36*
X344423Y217423D02*
X344423Y217423D01*
X344423Y226863D01*
X345491Y226694D01*
X347148Y226155D01*
X348700Y225365D01*
X350109Y224341D01*
X351341Y223109D01*
X352365Y221700D01*
X353155Y220148D01*
X353694Y218491D01*
X353863Y217423D01*
X344423Y217423D01*
G37*
%LPD*%
%LPC*%
G36*
X915923Y204723D02*
X915923Y204723D01*
X915923Y214163D01*
X916991Y213994D01*
X918648Y213455D01*
X920200Y212665D01*
X921609Y211641D01*
X922841Y210409D01*
X923865Y209000D01*
X924655Y207448D01*
X925194Y205791D01*
X925363Y204723D01*
X915923Y204723D01*
G37*
%LPD*%
%LPC*%
G36*
X331937Y217423D02*
X331937Y217423D01*
X332106Y218491D01*
X332645Y220148D01*
X333435Y221700D01*
X334459Y223109D01*
X335691Y224341D01*
X337100Y225365D01*
X338652Y226155D01*
X340309Y226694D01*
X341377Y226863D01*
X341377Y217423D01*
X331937Y217423D01*
G37*
%LPD*%
%LPC*%
G36*
X344423Y214377D02*
X344423Y214377D01*
X353863Y214377D01*
X353694Y213309D01*
X353155Y211652D01*
X352365Y210100D01*
X351341Y208691D01*
X350109Y207459D01*
X348700Y206435D01*
X347148Y205645D01*
X345491Y205106D01*
X344423Y204937D01*
X344423Y214377D01*
G37*
%LPD*%
%LPC*%
G36*
X915923Y201677D02*
X915923Y201677D01*
X925363Y201677D01*
X925194Y200609D01*
X924655Y198952D01*
X923865Y197400D01*
X922841Y195991D01*
X921609Y194759D01*
X920200Y193735D01*
X918648Y192945D01*
X916991Y192406D01*
X915923Y192237D01*
X915923Y201677D01*
G37*
%LPD*%
%LPC*%
G36*
X903437Y204723D02*
X903437Y204723D01*
X903606Y205791D01*
X904145Y207448D01*
X904935Y209000D01*
X905959Y210409D01*
X907191Y211641D01*
X908600Y212665D01*
X910152Y213455D01*
X911809Y213994D01*
X912877Y214163D01*
X912877Y204723D01*
X903437Y204723D01*
G37*
%LPD*%
%LPC*%
G36*
X340309Y205106D02*
X340309Y205106D01*
X338652Y205645D01*
X337100Y206435D01*
X335691Y207459D01*
X334459Y208691D01*
X333435Y210100D01*
X332645Y211652D01*
X332106Y213309D01*
X331937Y214377D01*
X341377Y214377D01*
X341377Y204937D01*
X340309Y205106D01*
G37*
%LPD*%
%LPC*%
G36*
X911809Y192406D02*
X911809Y192406D01*
X910152Y192945D01*
X908600Y193735D01*
X907191Y194759D01*
X905959Y195991D01*
X904935Y197400D01*
X904145Y198952D01*
X903606Y200609D01*
X903437Y201677D01*
X912877Y201677D01*
X912877Y192237D01*
X911809Y192406D01*
G37*
%LPD*%
%LPC*%
G36*
X492877Y331723D02*
X492877Y331723D01*
X492877Y340067D01*
X497511Y340067D01*
X498158Y339894D01*
X498737Y339560D01*
X499210Y339087D01*
X499545Y338507D01*
X499718Y337861D01*
X499718Y331723D01*
X492877Y331723D01*
G37*
%LPD*%
%LPC*%
G36*
X492877Y320333D02*
X492877Y320333D01*
X492877Y328677D01*
X499718Y328677D01*
X499718Y322539D01*
X499545Y321893D01*
X499210Y321313D01*
X498737Y320840D01*
X498158Y320506D01*
X497511Y320333D01*
X492877Y320333D01*
G37*
%LPD*%
%LPC*%
G36*
X230123Y322528D02*
X230123Y322528D01*
X230123Y328702D01*
X236035Y328702D01*
X236682Y328529D01*
X237261Y328194D01*
X237734Y327721D01*
X238069Y327142D01*
X238242Y326495D01*
X238242Y322528D01*
X230123Y322528D01*
G37*
%LPD*%
%LPC*%
G36*
X218958Y322528D02*
X218958Y322528D01*
X218958Y326495D01*
X219131Y327142D01*
X219466Y327721D01*
X219939Y328194D01*
X220518Y328529D01*
X221165Y328702D01*
X227077Y328702D01*
X227077Y322528D01*
X218958Y322528D01*
G37*
%LPD*%
%LPC*%
G36*
X230123Y313308D02*
X230123Y313308D01*
X230123Y319482D01*
X238242Y319482D01*
X238242Y315515D01*
X238069Y314868D01*
X237734Y314289D01*
X237261Y313816D01*
X236682Y313481D01*
X236035Y313308D01*
X230123Y313308D01*
G37*
%LPD*%
%LPC*%
G36*
X221165Y313308D02*
X221165Y313308D01*
X220518Y313481D01*
X219939Y313816D01*
X219466Y314289D01*
X219131Y314868D01*
X218958Y315515D01*
X218958Y319482D01*
X227077Y319482D01*
X227077Y313308D01*
X221165Y313308D01*
G37*
%LPD*%
%LPC*%
G36*
X697299Y26899D02*
X697299Y26899D01*
X697299Y33810D01*
X698291Y33613D01*
X699846Y32969D01*
X701244Y32034D01*
X702434Y30844D01*
X703369Y29446D01*
X704013Y27891D01*
X704210Y26899D01*
X697299Y26899D01*
G37*
%LPD*%
%LPC*%
G36*
X697299Y23901D02*
X697299Y23901D01*
X704210Y23901D01*
X704013Y22909D01*
X703369Y21354D01*
X702434Y19956D01*
X701244Y18766D01*
X699846Y17831D01*
X698291Y17187D01*
X697299Y16990D01*
X697299Y23901D01*
G37*
%LPD*%
%LPC*%
G36*
X420199Y158449D02*
X420199Y158449D01*
X420199Y167241D01*
X422035Y167241D01*
X422681Y167068D01*
X423260Y166733D01*
X423733Y166260D01*
X424068Y165681D01*
X424241Y165034D01*
X424241Y158449D01*
X420199Y158449D01*
G37*
%LPD*%
%LPC*%
G36*
X420199Y146659D02*
X420199Y146659D01*
X420199Y155451D01*
X424241Y155451D01*
X424241Y148866D01*
X424068Y148219D01*
X423733Y147640D01*
X423260Y147167D01*
X422681Y146832D01*
X422034Y146659D01*
X420199Y146659D01*
G37*
%LPD*%
%LPC*%
G36*
X114299Y304799D02*
X114299Y304799D01*
X114299Y304801D01*
X114301Y304801D01*
X114301Y304799D01*
X114299Y304799D01*
G37*
%LPD*%
%LPC*%
G36*
X914399Y203199D02*
X914399Y203199D01*
X914399Y203201D01*
X914401Y203201D01*
X914401Y203199D01*
X914399Y203199D01*
G37*
%LPD*%
%LPC*%
G36*
X355599Y101599D02*
X355599Y101599D01*
X355599Y101601D01*
X355601Y101601D01*
X355601Y101599D01*
X355599Y101599D01*
G37*
%LPD*%
%LPC*%
G36*
X342899Y215899D02*
X342899Y215899D01*
X342899Y215901D01*
X342901Y215901D01*
X342901Y215899D01*
X342899Y215899D01*
G37*
%LPD*%
%LPC*%
G36*
X871099Y76199D02*
X871099Y76199D01*
X871099Y76201D01*
X871101Y76201D01*
X871101Y76199D01*
X871099Y76199D01*
G37*
%LPD*%
%LPC*%
G36*
X678899Y114299D02*
X678899Y114299D01*
X678899Y114301D01*
X678901Y114301D01*
X678901Y114299D01*
X678899Y114299D01*
G37*
%LPD*%
%LPC*%
G36*
X678899Y148299D02*
X678899Y148299D01*
X678899Y148301D01*
X678901Y148301D01*
X678901Y148299D01*
X678899Y148299D01*
G37*
%LPD*%
%LPC*%
G36*
X548699Y114299D02*
X548699Y114299D01*
X548699Y114301D01*
X548701Y114301D01*
X548701Y114299D01*
X548699Y114299D01*
G37*
%LPD*%
%LPC*%
G36*
X228599Y321004D02*
X228599Y321004D01*
X228599Y321006D01*
X228601Y321006D01*
X228601Y321004D01*
X228599Y321004D01*
G37*
%LPD*%
D10*
X473846Y330200D03*
X491354Y330200D03*
D11*
X497900Y309626D03*
X489900Y309626D03*
X481900Y309626D03*
X473900Y309626D03*
X465900Y309626D03*
X457900Y309626D03*
X449900Y309626D03*
X441900Y309626D03*
D12*
X426974Y294700D03*
X426974Y286700D03*
X426974Y278700D03*
X426974Y270700D03*
X426974Y262700D03*
X426974Y254700D03*
X426974Y246700D03*
X426974Y238700D03*
D11*
X441900Y223774D03*
X449900Y223774D03*
X457900Y223774D03*
X465900Y223774D03*
X473900Y223774D03*
X481900Y223774D03*
X489900Y223774D03*
X497900Y223774D03*
D12*
X512826Y238700D03*
X512826Y246700D03*
X512826Y254700D03*
X512826Y262700D03*
X512826Y270700D03*
X512826Y278700D03*
X512826Y286700D03*
X512826Y294700D03*
D13*
X165100Y297180D02*
X165100Y312420D01*
X139700Y312420D02*
X139700Y297180D01*
X114300Y297180D02*
X114300Y312420D01*
D14*
X816305Y165100D03*
X834695Y165100D03*
D15*
X863600Y232105D03*
X863600Y250495D03*
X228600Y321005D03*
X228600Y339395D03*
X279400Y339395D03*
X279400Y321005D03*
X304800Y339395D03*
X304800Y321005D03*
D16*
X729100Y76200D03*
D17*
X871100Y76200D03*
D18*
X730700Y127000D03*
X818700Y127000D03*
X675800Y25400D03*
X695800Y25400D03*
D19*
X723900Y161300D03*
X723900Y194300D03*
D20*
X838200Y203200D03*
X863600Y203200D03*
X889000Y203200D03*
X914400Y203200D03*
X342900Y317500D03*
X342900Y292100D03*
X342900Y266700D03*
X342900Y241300D03*
X342900Y215900D03*
D21*
X355600Y38100D03*
D22*
X355600Y101600D03*
X50800Y177800D03*
X203200Y177800D03*
D23*
X678900Y80300D03*
X678900Y97300D03*
X678900Y114300D03*
X678900Y131300D03*
X678900Y148300D03*
D24*
X548700Y114300D03*
D25*
X418700Y156950D03*
X408700Y156950D03*
D26*
X431700Y131700D03*
X355700Y131700D03*
D25*
X398700Y156950D03*
X388700Y156950D03*
X378700Y156950D03*
X368700Y156950D03*
D27*
X482600Y266700D03*
D28*
X504477Y255080D02*
X512446Y255080D01*
X512826Y254700D01*
X492857Y266700D02*
X482600Y266700D01*
X492857Y266700D02*
X504477Y255080D01*
X512826Y254700D02*
X558100Y254700D01*
X726705Y254700D01*
X816305Y165100D01*
X816305Y181305D02*
X838200Y203200D01*
X816305Y181305D02*
X816305Y165100D01*
D27*
X546100Y304800D03*
D28*
X533400Y262700D02*
X512826Y262700D01*
X533400Y262700D02*
X533400Y266700D01*
X546100Y279400D01*
X546100Y304800D01*
X804100Y262700D02*
X863600Y203200D01*
X804100Y262700D02*
X533400Y262700D01*
X863600Y232105D02*
X863600Y203200D01*
D29*
X482600Y38100D02*
X355600Y38100D01*
X482600Y38100D02*
X495300Y25400D01*
X675800Y25400D01*
D13*
X675800Y28100D01*
X685800Y38100D01*
X685800Y51015D01*
D29*
X300015Y177800D02*
X203200Y177800D01*
X300015Y177800D02*
X320082Y157733D01*
X320082Y73618D02*
X355600Y38100D01*
X320082Y73618D02*
X320082Y157733D01*
D30*
X678900Y80300D02*
X678900Y63500D01*
X678900Y57915D01*
D28*
X685800Y51015D01*
X473846Y309680D02*
X473846Y330200D01*
X473846Y309680D02*
X473900Y309626D01*
X473900Y296100D01*
X469900Y292100D01*
X457200Y292100D01*
X457200Y300957D01*
X457520Y301277D01*
X457520Y309246D01*
X457900Y309626D01*
X342900Y241300D02*
X317500Y241300D01*
X254000Y304800D01*
X254000Y330200D01*
X263195Y339395D01*
X279400Y339395D01*
X304800Y339395D01*
D30*
X723900Y161300D02*
X758200Y127000D01*
X818700Y127000D01*
X889000Y197300D02*
X889000Y203200D01*
X889000Y197300D02*
X853850Y162150D01*
X818700Y127000D01*
D31*
X715500Y131300D02*
X678900Y131300D01*
X715500Y131300D02*
X723900Y139700D01*
X723900Y161300D01*
D28*
X834695Y165100D02*
X850900Y165100D01*
X853850Y162150D01*
X872008Y242087D02*
X863600Y250495D01*
X872008Y242087D02*
X872700Y242087D01*
X889000Y225787D01*
X889000Y203200D01*
X408700Y167400D02*
X408700Y156950D01*
X408700Y167400D02*
X419100Y177800D01*
X457200Y177800D01*
D27*
X457200Y177800D03*
D28*
X473846Y330200D02*
X473846Y346846D01*
X482600Y355600D01*
X660400Y355600D01*
X821995Y292100D02*
X863600Y250495D01*
X723900Y292100D02*
X660400Y355600D01*
X723900Y292100D02*
X821995Y292100D01*
X308305Y321005D02*
X304800Y321005D01*
X405925Y271080D02*
X426594Y271080D01*
X426974Y270700D01*
X339395Y321005D02*
X304800Y321005D01*
X339395Y321005D02*
X342900Y317500D01*
X359505Y317500D01*
X405925Y271080D01*
X374488Y292100D02*
X342900Y292100D01*
X374488Y292100D02*
X402874Y263714D01*
X417991Y263714D01*
X418625Y263080D01*
X426594Y263080D01*
X426974Y262700D01*
X308305Y292100D02*
X279400Y321005D01*
X308305Y292100D02*
X342900Y292100D01*
X342900Y266700D02*
X383283Y266700D01*
X426594Y255080D02*
X426974Y254700D01*
X394903Y255080D02*
X383283Y266700D01*
X394903Y255080D02*
X426594Y255080D01*
X368300Y319122D02*
X368300Y330200D01*
X342900Y355600D01*
X215900Y355600D02*
X165100Y304800D01*
X368300Y319122D02*
X408722Y278700D01*
X342900Y355600D02*
X228600Y355600D01*
X215900Y355600D01*
X228600Y355600D02*
X228600Y339395D01*
X408722Y278700D02*
X426974Y278700D01*
D13*
X139700Y266700D02*
X139700Y304800D01*
X139700Y266700D02*
X50800Y177800D01*
D30*
X730700Y127000D02*
X730700Y88900D01*
X730700Y77800D01*
X729100Y76200D01*
D32*
X722300Y97300D02*
X678900Y97300D01*
X722300Y97300D02*
X730700Y88900D01*
D28*
X368700Y156950D02*
X368700Y216300D01*
X399100Y246700D02*
X426974Y246700D01*
X399100Y246700D02*
X368700Y216300D01*
X378700Y213600D02*
X378700Y156950D01*
X403800Y238700D02*
X426974Y238700D01*
X403800Y238700D02*
X378700Y213600D01*
X388700Y172800D02*
X388700Y156950D01*
X388700Y172800D02*
X419100Y203200D01*
X431800Y203200D01*
X441900Y213300D01*
X441900Y223774D01*
X398700Y170100D02*
X398700Y156950D01*
X398700Y170100D02*
X419100Y190500D01*
X546100Y190500D01*
X558800Y203200D01*
D27*
X558800Y203200D03*
X647700Y292100D03*
D28*
X520700Y270700D02*
X512826Y270700D01*
X520700Y270700D02*
X533400Y283400D01*
X541339Y316294D02*
X544894Y316294D01*
X546100Y317500D01*
X541339Y316294D02*
X533400Y308354D01*
X546100Y317500D02*
X622300Y317500D01*
X647700Y292100D01*
X533400Y283400D02*
X533400Y308354D01*
M02*
