G04 EAGLE Gerber RS-274X export*
G75*
%MOMM*%
%FSLAX34Y34*%
%LPD*%
%INTop Copper*%
%IPPOS*%
%AMOC8*
5,1,8,0,0,1.08239X$1,22.5*%
G01*
%ADD10R,0.800000X1.200000*%
%ADD11C,0.152400*%

G36*
X622390Y469154D02*
X622390Y469154D01*
X622481Y469161D01*
X622511Y469173D01*
X622543Y469179D01*
X622623Y469221D01*
X622707Y469257D01*
X622739Y469283D01*
X622760Y469294D01*
X622782Y469317D01*
X622838Y469362D01*
X635538Y482062D01*
X635591Y482136D01*
X635651Y482205D01*
X635663Y482235D01*
X635682Y482261D01*
X635709Y482348D01*
X635743Y482433D01*
X635747Y482474D01*
X635754Y482497D01*
X635753Y482529D01*
X635761Y482600D01*
X635761Y520700D01*
X635747Y520790D01*
X635739Y520881D01*
X635727Y520911D01*
X635722Y520943D01*
X635679Y521023D01*
X635643Y521107D01*
X635617Y521139D01*
X635606Y521160D01*
X635583Y521182D01*
X635538Y521238D01*
X622838Y533938D01*
X622764Y533991D01*
X622695Y534051D01*
X622665Y534063D01*
X622639Y534082D01*
X622552Y534109D01*
X622467Y534143D01*
X622426Y534147D01*
X622403Y534154D01*
X622371Y534153D01*
X622300Y534161D01*
X612648Y534161D01*
X612628Y534158D01*
X612609Y534160D01*
X612507Y534138D01*
X612405Y534122D01*
X612388Y534112D01*
X612368Y534108D01*
X612279Y534055D01*
X612188Y534006D01*
X612174Y533992D01*
X612157Y533982D01*
X612090Y533903D01*
X612018Y533828D01*
X612010Y533810D01*
X611997Y533795D01*
X611958Y533699D01*
X611915Y533605D01*
X611913Y533585D01*
X611905Y533567D01*
X611887Y533400D01*
X611887Y519753D01*
X597847Y505713D01*
X586786Y505713D01*
X586766Y505710D01*
X586747Y505712D01*
X586645Y505690D01*
X586543Y505674D01*
X586526Y505664D01*
X586506Y505660D01*
X586417Y505607D01*
X586326Y505558D01*
X586312Y505544D01*
X586295Y505534D01*
X586228Y505455D01*
X586156Y505380D01*
X586148Y505362D01*
X586135Y505347D01*
X586096Y505251D01*
X586053Y505157D01*
X586051Y505137D01*
X586043Y505119D01*
X586025Y504952D01*
X586025Y501368D01*
X585132Y500475D01*
X575868Y500475D01*
X574975Y501368D01*
X574975Y514632D01*
X575868Y515525D01*
X585132Y515525D01*
X586025Y514632D01*
X586025Y511048D01*
X586028Y511028D01*
X586026Y511009D01*
X586048Y510907D01*
X586064Y510805D01*
X586074Y510788D01*
X586078Y510768D01*
X586131Y510679D01*
X586180Y510588D01*
X586194Y510574D01*
X586204Y510557D01*
X586283Y510490D01*
X586358Y510418D01*
X586376Y510410D01*
X586391Y510397D01*
X586487Y510358D01*
X586581Y510315D01*
X586601Y510313D01*
X586619Y510305D01*
X586786Y510287D01*
X595637Y510287D01*
X595728Y510301D01*
X595818Y510309D01*
X595848Y510321D01*
X595880Y510326D01*
X595961Y510369D01*
X596045Y510405D01*
X596077Y510431D01*
X596098Y510442D01*
X596120Y510465D01*
X596176Y510510D01*
X607090Y521424D01*
X607143Y521498D01*
X607203Y521568D01*
X607215Y521598D01*
X607234Y521624D01*
X607261Y521711D01*
X607295Y521796D01*
X607299Y521837D01*
X607306Y521859D01*
X607305Y521891D01*
X607313Y521963D01*
X607313Y533400D01*
X607310Y533420D01*
X607312Y533439D01*
X607290Y533541D01*
X607274Y533643D01*
X607264Y533660D01*
X607260Y533680D01*
X607207Y533769D01*
X607158Y533860D01*
X607144Y533874D01*
X607134Y533891D01*
X607055Y533958D01*
X606980Y534030D01*
X606962Y534038D01*
X606947Y534051D01*
X606851Y534090D01*
X606757Y534133D01*
X606737Y534135D01*
X606719Y534143D01*
X606552Y534161D01*
X533400Y534161D01*
X533310Y534147D01*
X533219Y534139D01*
X533189Y534127D01*
X533157Y534122D01*
X533077Y534079D01*
X532993Y534043D01*
X532961Y534017D01*
X532940Y534006D01*
X532918Y533983D01*
X532862Y533938D01*
X520162Y521238D01*
X520109Y521164D01*
X520049Y521095D01*
X520037Y521065D01*
X520018Y521039D01*
X519991Y520952D01*
X519957Y520867D01*
X519953Y520826D01*
X519946Y520803D01*
X519947Y520771D01*
X519939Y520700D01*
X519939Y482600D01*
X519954Y482510D01*
X519961Y482419D01*
X519973Y482389D01*
X519979Y482357D01*
X520021Y482277D01*
X520057Y482193D01*
X520083Y482161D01*
X520094Y482140D01*
X520117Y482118D01*
X520162Y482062D01*
X532862Y469362D01*
X532936Y469309D01*
X533005Y469249D01*
X533035Y469237D01*
X533061Y469218D01*
X533148Y469191D01*
X533233Y469157D01*
X533274Y469153D01*
X533297Y469146D01*
X533329Y469147D01*
X533400Y469139D01*
X622300Y469139D01*
X622390Y469154D01*
G37*
%LPC*%
G36*
X564023Y509523D02*
X564023Y509523D01*
X564023Y516541D01*
X566834Y516541D01*
X567481Y516368D01*
X568060Y516033D01*
X568533Y515560D01*
X568868Y514981D01*
X569041Y514334D01*
X569041Y509523D01*
X564023Y509523D01*
G37*
%LPD*%
%LPC*%
G36*
X564023Y499459D02*
X564023Y499459D01*
X564023Y506477D01*
X569041Y506477D01*
X569041Y501666D01*
X568868Y501019D01*
X568533Y500440D01*
X568060Y499967D01*
X567481Y499632D01*
X566834Y499459D01*
X564023Y499459D01*
G37*
%LPD*%
%LPC*%
G36*
X555959Y509523D02*
X555959Y509523D01*
X555959Y514334D01*
X556132Y514981D01*
X556467Y515560D01*
X556940Y516033D01*
X557519Y516368D01*
X558166Y516541D01*
X560977Y516541D01*
X560977Y509523D01*
X555959Y509523D01*
G37*
%LPD*%
%LPC*%
G36*
X558166Y499459D02*
X558166Y499459D01*
X557519Y499632D01*
X556940Y499967D01*
X556467Y500440D01*
X556132Y501019D01*
X555959Y501666D01*
X555959Y506477D01*
X560977Y506477D01*
X560977Y499459D01*
X558166Y499459D01*
G37*
%LPD*%
%LPC*%
G36*
X562499Y507999D02*
X562499Y507999D01*
X562499Y508001D01*
X562501Y508001D01*
X562501Y507999D01*
X562499Y507999D01*
G37*
%LPD*%
D10*
X562500Y558800D03*
X580500Y558800D03*
X562500Y508000D03*
X580500Y508000D03*
D11*
X562500Y558800D02*
X546100Y558800D01*
X533400Y546100D01*
X533400Y520700D01*
X546100Y508000D01*
X562500Y508000D01*
X580500Y508000D02*
X596900Y508000D01*
X609600Y520700D01*
X609600Y546100D01*
X596900Y558800D01*
X580500Y558800D01*
M02*
